<svg width="333" height="314" viewBox="0 0 333 314" fill="none" xmlns="http://www.w3.org/2000/svg">
<path d="M66.6616 253.405C66.7297 260.405 62.6043 262.89 57.4866 262.94C57.3677 262.941 57.2494 262.941 57.1316 262.939C56.8944 262.937 56.6596 262.928 56.4272 262.914C51.805 262.631 48.1911 260.097 48.1278 253.586C48.0623 246.848 56.5646 238.262 57.2023 237.627L57.2034 237.626C57.2276 237.602 57.24 237.59 57.24 237.59C57.24 237.59 66.5935 246.405 66.6616 253.405Z" fill="#FFD600"/>
<path d="M212.962 253.011C213.03 260.012 208.905 262.496 203.787 262.546C203.668 262.548 203.55 262.547 203.432 262.546C203.195 262.543 202.96 262.535 202.727 262.52C198.105 262.237 194.491 259.703 194.428 253.193C194.363 246.455 202.865 237.868 203.503 237.233L203.504 237.233C203.528 237.209 203.54 237.196 203.54 237.196C203.54 237.196 212.894 246.011 212.962 253.011Z" fill="#FFD600"/>
<path d="M333 262.043H0V262.83H333V262.043Z" fill="#3F3D56"/>
<path d="M67.8551 130.615C103.814 130.615 132.965 101.376 132.965 65.3075C132.965 29.2392 103.814 0 67.8551 0C31.8961 0 2.74561 29.2392 2.74561 65.3075C2.74561 101.376 31.8961 130.615 67.8551 130.615Z" fill="#FFD600"/>
<path d="M147.085 203.791H147.085C162.689 203.791 177.653 210.008 188.687 221.075C199.72 232.143 205.919 247.153 205.919 262.804V262.804H113.746V237.232C113.746 228.363 117.258 219.857 123.51 213.586C129.763 207.314 138.243 203.791 147.085 203.791Z" fill="#3F3D56"/>
<path d="M274.911 125.917C274.911 125.917 277.595 160.915 273.838 161.992C270.08 163.068 256.66 171.145 235.189 168.991C235.189 168.991 214.254 180.298 217.475 169.53C220.696 158.761 235.189 161.453 235.189 161.453C235.189 161.453 260.955 156.069 262.028 152.3C263.102 148.531 258.808 132.917 260.418 132.379C262.028 131.84 274.911 125.917 274.911 125.917Z" fill="#A0616A"/>
<path d="M242.759 186.936C242.759 186.936 244.851 237.496 248.072 245.034C250.755 251.313 252.32 271.788 252.768 278.452C252.858 279.789 252.903 280.57 252.903 280.57C252.903 280.57 261.492 280.57 262.028 278.416C262.565 276.263 264.176 252.572 262.028 245.034C259.881 237.496 264.767 185.32 264.767 185.32L242.759 186.936Z" fill="#2F2E41"/>
<path d="M255.05 277.878C255.05 277.878 249.682 279.493 248.608 281.647C247.535 283.801 229.821 287.569 235.189 290.262C240.557 292.954 256.66 288.108 256.66 288.108C256.66 288.108 265.249 287.569 264.712 284.339C264.175 281.108 262.221 277.128 262.221 277.128L255.05 277.878Z" fill="#2F2E41"/>
<path d="M270.08 283.675C270.08 283.675 264.712 285.29 263.639 287.444C262.565 289.597 244.851 293.366 250.219 296.058C255.587 298.751 271.691 293.905 271.691 293.905C271.691 293.905 280.279 293.366 279.742 290.136C279.206 286.905 277.251 282.925 277.251 282.925L270.08 283.675Z" fill="#2F2E41"/>
<path d="M247.535 185.682L255.05 198.604L267.592 243.532C267.592 243.532 266.323 284.752 267.933 284.752C269.543 284.752 278.132 287.444 278.669 284.752C279.122 282.478 285.134 260.694 282.137 246.194C280.188 237.03 278.934 227.731 278.387 218.377L277.058 193.22C277.058 193.22 282.426 183.528 276.522 181.913C270.617 180.298 247.535 185.682 247.535 185.682Z" fill="#2F2E41"/>
<path d="M254.513 102.765C261.628 102.765 267.396 96.9799 267.396 89.8432C267.396 82.7066 261.628 76.9211 254.513 76.9211C247.398 76.9211 241.63 82.7066 241.63 89.8432C241.63 96.9799 247.398 102.765 254.513 102.765Z" fill="#A0616A"/>
<path d="M252.903 98.458C252.903 98.458 255.05 115.687 254.513 116.764C253.976 117.841 267.396 104.919 267.396 104.919C267.396 104.919 262.565 97.3811 263.639 93.6122L252.903 98.458Z" fill="#A0616A"/>
<path d="M282.963 115.687C282.963 115.687 267.933 104.919 267.396 102.765L256.124 112.457L254.208 110.17C254.208 110.17 245.388 118.918 245.388 122.687C245.388 126.456 244.851 137.763 246.461 140.993C248.072 144.224 241.63 185.144 241.63 185.144C241.63 185.144 246.998 189.99 247.535 190.528C248.072 191.066 269.543 187.297 269.543 187.297C269.543 187.297 280.279 186.221 280.279 184.605C280.279 182.99 277.058 158.761 278.132 152.3C279.206 145.839 282.963 115.687 282.963 115.687Z" fill="#FF4133"/>
<path d="M286.184 130.763C286.184 130.763 288.868 165.761 285.11 166.837C281.353 167.914 267.933 175.991 246.462 173.837C246.462 173.837 225.527 185.144 228.748 174.375C231.968 163.607 246.462 166.299 246.462 166.299C246.462 166.299 272.227 160.915 273.301 157.146C274.375 153.377 270.08 137.763 271.691 137.224C273.301 136.686 286.184 130.763 286.184 130.763Z" fill="#A0616A"/>
<path d="M249.01 83.3881C250.771 82.7594 252.714 82.4365 254.51 82.9577C257.051 83.6953 258.811 85.9296 260.709 87.7778C262.608 89.626 265.27 91.2637 267.769 90.3946C267.619 89.3079 267.903 88.2055 268.56 87.3284C268.886 87.0014 269.127 86.5988 269.262 86.1563C269.369 85.4642 268.789 84.8673 268.615 84.189C268.31 83.0004 269.146 81.3733 268.118 80.7072C267.847 80.5314 267.503 80.4913 267.238 80.3057C266.199 79.5773 267.353 77.7658 266.666 76.6972C266.461 76.4213 266.193 76.1976 265.886 76.0441C260.905 73.1288 254.813 73.1208 249.047 73.1943C248.244 73.2045 247.126 73.6044 247.353 74.377C246.263 73.5923 244.836 74.6941 243.958 75.7111L242.16 77.7926C241.315 78.6978 240.577 79.6982 239.962 80.7738C239.413 81.8273 239.292 83.4469 240.385 83.9062C239.572 83.5647 238.586 88.3929 242.333 87.5985C244.509 87.137 246.643 84.2332 249.01 83.3881Z" fill="#2F2E41"/>
<path d="M274.374 116.764L282.963 115.687C282.963 115.687 291.552 132.378 286.72 135.071C281.889 137.763 269.543 139.916 269.543 138.84C269.543 137.763 274.374 116.764 274.374 116.764Z" fill="#FF4133"/>
<path d="M156.665 120.427C156.665 120.427 159.227 128.871 157.763 131.44C156.299 134.01 160.325 139.517 166.913 136.947C173.501 134.377 173.867 131.44 173.867 131.44C173.867 131.44 171.305 127.402 170.573 118.958L156.665 120.427Z" fill="#FFB9B9"/>
<path d="M123.175 203.213C123.175 203.213 109.998 209.821 115.855 218.632C119.259 223.754 125.754 233.713 130.597 241.155C134.65 247.384 137.759 254.182 139.821 261.326L140.743 264.523L144.403 268.928L152.09 260.117C152.09 260.117 140.743 239.191 140.743 235.153C140.743 231.115 131.593 218.265 131.593 218.265L140.743 212.391C140.743 212.391 130.495 200.643 123.175 203.213Z" fill="#FFB9B9"/>
<path d="M165.998 225.975C165.998 225.975 166.364 236.254 166.73 240.293C167.032 243.624 164.095 252.953 165.114 263.331C165.735 270.045 165.661 276.806 164.892 283.505L163.436 296.83L174.416 297.931L178.076 267.827C178.076 267.827 180.272 246.534 179.174 239.558L179.54 224.873C179.54 224.873 171.488 221.936 165.998 225.975Z" fill="#FFB9B9"/>
<path d="M146.416 183.205C146.416 183.205 120.796 199.726 120.43 204.865C120.43 204.865 135.07 203.397 135.436 216.246C135.436 216.246 144.22 212.942 146.416 212.208C148.613 211.473 160.325 203.764 160.325 203.764C160.325 203.764 165.083 207.435 165.083 213.309C165.083 219.183 164.717 229.463 165.083 230.197C165.449 230.931 173.867 220.284 180.821 229.463L185.58 204.131C185.58 204.131 187.044 188.712 184.116 187.61L163.619 179.901L146.416 183.205Z" fill="#2F2E41"/>
<path d="M161.972 125.016C168.036 125.016 172.952 120.085 172.952 114.002C172.952 107.919 168.036 102.988 161.972 102.988C155.908 102.988 150.992 107.919 150.992 114.002C150.992 120.085 155.908 125.016 161.972 125.016Z" fill="#FFB9B9"/>
<path d="M159.227 133.276C159.227 133.276 171.612 136.557 173.289 130.328C173.289 130.328 188.508 133.276 191.07 143.188C193.632 153.101 184.848 176.964 184.848 177.698C184.848 178.432 192.168 182.838 188.874 185.041C185.58 187.243 182.651 184.673 184.116 187.61C185.58 190.547 188.142 191.282 185.946 192.016C183.749 192.75 170.573 181.369 160.325 184.306C150.077 187.243 144.952 185.041 144.952 185.041L140.357 145.203C140.178 143.677 140.382 142.13 140.952 140.704C141.522 139.277 142.439 138.016 143.619 137.036C145.913 135.143 148.956 133.097 151.907 132.542C157.763 131.44 158.006 130.838 158.006 130.838L159.227 133.276Z" fill="#D0CDE1"/>
<path d="M147.515 197.523C147.515 197.523 150.809 216.246 155.201 213.676C159.593 211.106 154.103 197.523 154.103 197.523H147.515Z" fill="#FFB9B9"/>
<path d="M162.805 199.946C162.805 199.946 157.097 218.076 162.176 217.834C167.255 217.591 168.647 203 168.647 203L162.805 199.946Z" fill="#FFB9B9"/>
<path d="M142.573 263.789C142.573 263.789 140.011 260.852 138.547 264.89C137.083 268.928 133.057 274.068 133.057 274.068C133.057 274.068 124.273 283.98 130.495 284.348C136.717 284.715 145.501 275.537 145.501 275.537L155.75 265.991C155.75 265.991 152.353 257.694 150.757 257.621C149.161 257.548 149.528 267.46 142.573 263.789Z" fill="#2F2E41"/>
<path d="M166.364 294.26C166.364 294.26 163.785 295.015 163.976 291.884C163.976 291.884 154.652 296.83 157.214 300.501C159.776 304.172 162.704 307.843 162.704 307.843C162.704 307.843 176.246 315.553 177.344 313.717C178.442 311.882 178.442 308.211 177.71 306.742C176.978 305.274 173.318 302.704 174.416 300.501C175.514 298.298 174.05 292.424 172.22 292.424C170.39 292.424 166.364 294.26 166.364 294.26Z" fill="#2F2E41"/>
<path d="M152.389 104.67C152.389 104.67 155.922 96.9932 162.692 98.7647C169.462 100.536 173.289 103.193 173.583 105.851C173.877 108.508 173.436 112.494 173.436 112.494C173.436 112.494 172.7 107.032 167.99 108.213C163.281 109.394 155.922 108.508 155.922 108.508L154.744 119.137C154.744 119.137 153.42 117.218 151.948 118.399C150.476 119.58 147.68 107.032 152.389 104.67Z" fill="#2F2E41"/>
<path d="M184.848 142.821C184.848 142.821 176.063 166.684 176.795 169.621C177.527 172.558 176.795 172.925 175.697 173.66C174.599 174.394 171.671 182.104 171.671 182.104C171.671 182.104 169.841 186.509 168.377 187.61C166.913 188.712 166.913 191.649 166.913 191.649C166.913 191.649 163.253 195.32 163.985 196.054C164.717 196.789 164.717 197.89 163.253 198.991C161.789 200.093 160.325 201.561 161.057 201.928C161.789 202.295 166.913 206.334 168.377 205.967C169.841 205.599 167.645 204.131 169.475 203.397C171.305 202.662 172.403 201.561 171.671 201.194C170.939 200.827 168.743 200.827 170.939 200.093C173.135 199.358 180.821 194.586 183.384 188.712C185.946 182.838 198.221 147.299 190.802 142.307C190.802 142.307 187.776 138.416 184.848 142.821Z" fill="#D0CDE1"/>
<path d="M144.22 138.783L144.072 138.845C142.689 139.423 141.468 140.331 140.514 141.489C139.56 142.648 138.901 144.022 138.596 145.493C137.797 149.33 137.01 154.879 137.632 160.076C138.73 169.254 139.462 173.293 140.926 176.23C142.39 179.167 142.756 178.065 142.39 180.268C142.024 182.471 140.194 180.635 142.024 183.572C143.854 186.509 144.952 185.775 144.22 187.243C143.488 188.712 142.39 188.712 143.854 190.547C145.318 192.383 145.318 193.117 145.684 193.852C146.05 194.586 147.148 200.093 147.148 200.093C147.148 200.093 153.005 198.257 156.299 198.991C156.299 198.991 153.371 193.852 154.103 192.75C154.835 191.649 155.933 191.282 154.835 190.18C153.737 189.079 151.907 189.446 153.737 188.345C155.567 187.243 152.273 175.862 152.273 175.862L144.22 138.783Z" fill="#D0CDE1"/>
<path d="M74.1307 262.017H60.795L66.8745 55.4721L74.1307 262.017Z" fill="#3F3D56"/>
<path d="M68.0513 94.6173L82.3675 74.7496L67.8552 99.535L66.2863 96.7811L68.0513 94.6173Z" fill="#3F3D56"/>
<path d="M66.4824 114.682L52.1661 94.814L66.6785 119.599L68.2474 116.845L66.4824 114.682Z" fill="#3F3D56"/>
<path d="M73.8277 154.582L67.3738 158.32L69.3349 161.727L75.7888 157.989L73.8277 154.582Z" fill="#3F3D56"/>
</svg>
