<svg width="308" height="283" viewBox="0 0 308 283" fill="none" xmlns="http://www.w3.org/2000/svg">
<g opacity="0.504511">
<path opacity="0.504511" fill-rule="evenodd" clip-rule="evenodd" d="M285.175 204.257C289 232.866 196.24 251.525 116.399 238.503C36.558 225.481 -0.0691071 174.627 38.0296 147.53C76.128 120.433 281.35 175.649 285.175 204.257Z" fill="#F2F2F2"/>
</g>
<path fill-rule="evenodd" clip-rule="evenodd" d="M170.426 85.0469C171.869 83.9436 174.109 84.6465 175.561 85.2979C176.121 85.5488 177.552 86.352 178.613 87.256C178.473 86.6296 178.348 85.9975 178.238 85.3603C177.79 82.7405 177.48 80.0707 177.332 77.4167C177.293 76.7242 177.343 75.951 177.395 75.1673V75.166C177.412 74.9009 177.429 74.6346 177.443 74.3699C177.385 74.3075 177.346 74.2209 177.329 74.104C177.323 74.1527 177.32 74.1914 177.317 74.2213C177.313 74.2696 177.311 74.2937 177.303 74.2954C177.295 74.2975 177.282 74.2771 177.255 74.2359C177.245 74.2201 177.232 74.2009 177.217 74.1789C176.144 72.5729 175.242 70.7625 175.118 68.7727C175.013 67.0856 176.399 63.8927 178.364 66.103C179.243 67.0901 179.015 74.0228 177.694 74.4477C178.047 76.7446 178.491 79.0382 179.046 81.3022C179.129 81.2876 179.214 81.2863 179.298 81.2976C179.29 80.7349 179.289 80.1206 179.313 79.9092C179.51 78.0897 181.029 74.3957 183.449 75.1132C185.307 75.6642 184.168 77.9332 183.536 78.9262C182.517 80.5251 181.365 81.2173 179.907 82.0488C179.877 82.3925 179.656 82.5923 179.395 82.6572C180.371 86.3137 181.655 89.8804 183.334 93.2489L183.379 93.0346C183.592 92.012 183.84 90.8201 183.998 90.5696C184.821 89.259 186.643 87.6584 188.323 88.4338C191.852 90.0647 188.021 94.7517 185.017 95.2615C184.892 95.4343 184.76 95.5733 184.62 95.6528C185.203 96.6695 185.827 97.6654 186.495 98.6355C187.496 100.095 188.572 101.549 189.7 102.995C189.735 101.864 190.181 99.343 190.307 99.0721C191.078 97.4273 193.298 95.7352 195.1 96.9034C197.125 98.221 195.289 100.71 194.133 101.837C193.659 102.299 191.317 103.992 190.49 103.999C193.215 107.409 196.223 110.76 199.282 113.99C199.028 112.544 198.697 108.562 198.734 108.12C198.924 105.839 200.423 102.19 203.375 103.079C206.239 103.94 204.972 107.731 203.992 109.538C203.398 110.631 202.577 111.743 201.586 112.505C201.408 112.643 201.175 112.755 200.942 112.867C200.662 113.002 200.381 113.137 200.199 113.315C200.036 113.474 199.986 113.657 199.936 113.838C199.883 114.029 199.832 114.218 199.647 114.377C201.3 116.115 202.964 117.817 204.605 119.471C205.379 120.252 206.167 121.018 206.963 121.774C207.398 121.593 208.019 121.831 207.987 122.448C207.982 122.538 207.962 122.615 207.934 122.686C208.537 123.247 209.144 123.805 209.755 124.356C209.742 124.196 209.745 123.969 209.774 123.656C209.333 124.283 209.352 123.37 209.366 122.674C209.371 122.428 209.375 122.209 209.358 122.095C209.294 121.648 209.21 121.205 209.127 120.762C208.948 119.818 208.77 118.876 208.779 117.901C208.798 115.831 210.108 112.363 212.864 113.595C215.399 114.726 214.477 117.793 213.521 119.716C212.915 120.933 212.087 122.02 211.221 123.06C211.067 123.245 210.895 123.497 210.726 123.746C210.474 124.115 210.226 124.479 210.043 124.615C212.396 126.726 214.805 128.775 217.213 130.823L217.214 130.825C218.293 131.742 219.372 132.66 220.445 133.583C220.492 133.38 220.531 133.179 220.564 132.991C220.497 133.067 220.406 133.102 220.288 133.096C220.257 132.94 220.212 132.734 220.158 132.486C219.494 129.459 217.474 120.24 222.944 122.027C226.952 123.34 224.123 131.367 221.134 134.175C222.948 135.743 224.745 137.331 226.499 138.966C227.769 140.149 229.001 141.373 230.187 142.637C229.573 141 228.995 138.88 229.375 137.193C229.927 134.738 232.515 132.421 235.041 133.817C238.191 135.566 235.768 137.955 233.496 140.195C232.335 141.339 231.214 142.443 230.895 143.404C234.663 147.552 237.88 152.161 240.029 157.41C242.367 163.119 244.537 170.789 243.337 177.176C243.558 174.368 242.61 170.842 241.945 168.365C241.854 168.028 241.769 167.71 241.693 167.417C240.692 163.576 239.271 159.839 237.399 156.341C234.4 150.739 230.439 145.984 225.865 141.666C224.824 142.03 223.692 142.702 222.756 143.259C222.181 143.601 221.68 143.899 221.317 144.056C219.567 144.812 216.207 145.895 215.092 143.514C213.996 141.174 216.794 139.864 218.528 139.34C220.204 138.834 221.714 138.895 223.277 139.31C220.857 137.161 218.377 135.08 215.898 133L215.897 133C215.441 132.618 214.985 132.235 214.529 131.852C213.899 132.369 213.203 133.117 212.464 133.911C210.118 136.431 207.339 139.417 204.857 136.977C201.112 133.296 208.275 129.555 211.328 129.847C211.702 129.883 212.065 129.962 212.418 130.069C209.306 127.424 206.241 124.725 203.343 121.835C202.823 121.931 201.996 122.696 201.001 123.617C198.766 125.685 195.689 128.533 193.371 126.291C191.698 124.672 192.271 122.152 193.888 120.71C195.511 119.263 197.865 119.265 199.866 119.753C200.731 119.962 201.529 120.363 202.273 120.851C202.304 120.852 202.335 120.854 202.365 120.856C199.514 117.982 196.644 115.044 193.881 112.006C193.833 112.022 193.783 112.038 193.734 112.054C193.567 112.259 193.287 112.334 193.031 112.289C192.89 112.337 192.745 112.387 192.598 112.438C190.409 113.194 187.596 114.166 185.414 113.747C183.809 113.438 182.351 112.132 183.711 110.523C184.816 109.214 187.813 109.402 189.276 109.712C189.989 109.864 190.766 110.302 191.545 110.742C191.872 110.927 192.2 111.112 192.524 111.277C192.608 111.107 192.755 110.998 192.922 110.946C190.193 107.893 187.589 104.734 185.228 101.438C184.513 101.549 183.72 101.864 182.902 102.188C180.935 102.968 178.823 103.806 177.308 102.002C175.071 99.3392 179.278 97.7848 181.278 98.0379C181.954 98.1232 182.62 98.3146 183.263 98.5681C181.544 95.8546 180.232 92.9543 179.31 89.9083C179.301 89.9124 179.293 89.917 179.284 89.922C179.271 89.9291 179.258 89.9366 179.242 89.9436C179.256 89.9361 179.268 89.9282 179.281 89.9203C179.29 89.9145 179.299 89.9087 179.308 89.9029C179.216 89.5982 179.128 89.2923 179.044 88.9848C178.888 88.8978 178.742 88.8337 178.672 88.8075C179.581 89.4347 175.746 89.7418 175.028 89.7992C173.441 89.9262 171.314 89.9736 170.15 88.6714C169.171 87.5777 169.229 85.9621 170.426 85.0469ZM243.507 177.185C243.44 178.11 243.273 178.958 242.961 179.657C243.195 178.861 243.374 178.034 243.507 177.185Z" fill="#F2F2F2"/>
<path opacity="0.2" fill-rule="evenodd" clip-rule="evenodd" d="M98.3506 25.9402C97.2972 25.143 95.6623 25.6522 94.601 26.1236C94.1922 26.3054 93.1475 26.8867 92.3721 27.5407C92.4749 27.0876 92.5665 26.6306 92.6464 26.1698C92.9752 24.2751 93.2021 22.3446 93.3115 20.4254C93.3398 19.9248 93.3032 19.3655 93.2666 18.7989L93.2662 18.7985C93.2537 18.6067 93.2412 18.414 93.2312 18.2225C93.2736 18.1772 93.3024 18.1147 93.3144 18.03C93.3186 18.0651 93.3211 18.0933 93.3232 18.1148C93.3265 18.1497 93.3278 18.1671 93.3336 18.1686C93.339 18.17 93.349 18.1552 93.3685 18.1255C93.376 18.114 93.3852 18.1002 93.396 18.0842C94.1806 16.9223 94.8399 15.6132 94.931 14.1744C95.008 12.9541 93.9974 10.6458 92.5619 12.2448C91.9197 12.9589 92.0837 17.9718 93.0476 18.2786C92.7892 19.9398 92.4645 21.5983 92.0583 23.2358C91.9975 23.2251 91.9355 23.2242 91.8743 23.2326C91.8802 22.8255 91.881 22.3813 91.8643 22.2286C91.7203 20.913 90.6124 18.2424 88.8464 18.7619C87.4891 19.1612 88.3198 20.8014 88.7814 21.5193C89.5244 22.675 90.3647 23.1752 91.4294 23.776C91.4506 24.0244 91.6125 24.1687 91.8032 24.2156C91.0889 26.86 90.1508 29.4393 88.9234 31.8758L88.8909 31.721C88.7352 30.9817 88.5542 30.1198 88.4393 29.9388C87.8391 28.9915 86.5093 27.8347 85.2823 28.3961C82.7051 29.5765 85.5 32.9643 87.6934 33.3318C87.7846 33.4566 87.8807 33.557 87.9835 33.6145C87.5569 34.35 87.1012 35.0703 86.6134 35.7719C85.8816 36.8274 85.0958 37.8795 84.2717 38.9254C84.2467 38.1076 83.9217 36.285 83.8293 36.0892C83.2674 34.9001 81.6471 33.6772 80.3314 34.5228C78.8518 35.4761 80.192 37.2756 81.0352 38.0898C81.3807 38.4236 83.0905 39.6468 83.694 39.652C81.7028 42.1187 79.5052 44.5429 77.2714 46.8798C77.4566 45.8339 77.6997 42.9544 77.673 42.6348C77.5353 40.9853 76.4423 38.3473 74.2867 38.9913C72.1948 39.6151 73.1188 42.3555 73.8339 43.6619C74.2671 44.4526 74.8661 45.2559 75.589 45.8069C75.7193 45.9063 75.8895 45.9871 76.0594 46.0682C76.2641 46.1656 76.4685 46.263 76.6021 46.392C76.7211 46.5069 76.7578 46.6388 76.794 46.7699C76.8319 46.9081 76.8697 47.045 77.0042 47.1595C75.7967 48.4167 74.581 49.6482 73.3827 50.8451C72.817 51.4099 72.2414 51.9642 71.66 52.5111C71.342 52.3808 70.8887 52.5527 70.912 52.9988C70.9153 53.0637 70.9307 53.1195 70.9511 53.1707C70.5104 53.5769 70.0671 53.9802 69.6201 54.3793C69.6305 54.2632 69.6276 54.0992 69.6072 53.8732C69.9285 54.3264 69.9152 53.666 69.9052 53.1628C69.9019 52.9847 69.8985 52.8265 69.9106 52.7441C69.958 52.4203 70.0196 52.1003 70.0808 51.7803C70.2115 51.0973 70.3418 50.416 70.3356 49.711C70.3222 48.2149 69.3674 45.7066 67.3542 46.5989C65.5033 47.4175 66.1755 49.6353 66.8731 51.0253C67.3142 51.9051 67.9186 52.6904 68.5504 53.4425C68.6632 53.5765 68.7881 53.7584 68.9117 53.9381C69.0952 54.2053 69.2763 54.4683 69.4103 54.5666C67.6913 56.0935 65.9324 57.5759 64.1731 59.0584H64.1726L64.1722 59.0588C63.3839 59.723 62.596 60.3868 61.8119 61.0547C61.7777 60.9083 61.7494 60.763 61.7253 60.6269C61.7744 60.6819 61.841 60.7077 61.9267 60.7027C61.9496 60.5903 61.9825 60.4409 62.0225 60.2615C62.5078 58.0728 63.9862 51.4057 59.9917 52.7C57.0649 53.6506 59.1273 59.4541 61.3087 61.4834C59.9838 62.6175 58.6711 63.7666 57.3896 64.9497C56.4618 65.8054 55.562 66.691 54.6958 67.6058C55.1445 66.4213 55.567 64.8886 55.2906 63.6688C54.8885 61.8942 52.9997 60.2191 51.1546 61.23C48.8542 62.496 50.6227 64.2219 52.2809 65.8408C53.1275 66.6673 53.9454 67.466 54.1785 68.161C51.426 71.1616 49.0752 74.4952 47.504 78.2915C45.795 82.4204 44.2076 87.9676 45.0816 92.5855C44.921 90.555 45.6144 88.0047 46.1009 86.2139C46.1675 85.97 46.23 85.7403 46.2857 85.5276C47.0175 82.75 48.0563 80.0474 49.4244 77.5179C51.6162 73.466 54.5106 70.0259 57.8516 66.902C58.6116 67.1642 59.4373 67.6503 60.1212 68.0528C60.5407 68.2995 60.9066 68.5151 61.1713 68.6283C62.4491 69.1744 64.9018 69.9563 65.7164 68.2346C66.5176 66.5412 64.4752 65.5957 63.2095 65.2169C61.9863 64.8515 60.8833 64.8965 59.7416 65.197C61.5101 63.6425 63.3215 62.1368 65.1324 60.6319C65.4658 60.3552 65.7988 60.0784 66.1318 59.8012C66.5917 60.175 67.0995 60.7156 67.6389 61.2895C69.3508 63.1107 71.3786 65.2685 73.1916 63.5035C75.9278 60.8404 70.6989 58.1378 68.4705 58.3504C68.1966 58.3762 67.9319 58.4337 67.6739 58.5115C69.9476 56.5975 72.1856 54.6444 74.3029 52.5539C74.6825 52.6226 75.2869 53.1761 76.0127 53.8412C77.6439 55.3361 79.8894 57.3941 81.5825 55.7718C82.8046 54.6011 82.3875 52.7787 81.2071 51.737C80.0222 50.6907 78.3036 50.6936 76.8423 51.047C76.2109 51.1989 75.6282 51.4885 75.085 51.8414C75.0617 51.8427 75.0396 51.8439 75.0176 51.8452C77.1007 49.7664 79.1964 47.641 81.2155 45.4431C81.2504 45.4544 81.2866 45.466 81.3228 45.4777C81.4448 45.6258 81.6491 45.6799 81.836 45.6471C81.9384 45.6816 82.0429 45.7174 82.1494 45.754L82.1519 45.7549C83.7498 46.3009 85.8038 47.003 87.3967 46.6987C88.5692 46.4753 89.6334 45.5297 88.6416 44.3665C87.8354 43.4209 85.6465 43.5579 84.5789 43.7826C84.0578 43.8925 83.4905 44.21 82.9215 44.5284C82.6822 44.6624 82.4429 44.7964 82.2065 44.9154C82.1449 44.7927 82.0379 44.7136 81.9159 44.6757C83.9092 42.4671 85.8117 40.1824 87.5374 37.7984C88.0593 37.8783 88.6378 38.1053 89.2347 38.3395C90.671 38.9029 92.2127 39.5076 93.3199 38.203C94.9543 36.2766 91.8827 35.1543 90.4221 35.3379C89.9289 35.3998 89.4428 35.5387 88.9729 35.722C90.229 33.7593 91.188 31.6616 91.8627 29.4586C91.8689 29.4619 91.8752 29.4653 91.881 29.4686C91.8906 29.4739 91.9001 29.4792 91.9118 29.4842C91.9018 29.4788 91.8926 29.4731 91.8839 29.4674C91.8772 29.4632 91.8706 29.4591 91.8635 29.455C91.9309 29.2346 91.9954 29.0132 92.057 28.791C92.1711 28.728 92.2776 28.6816 92.3288 28.6625C91.665 29.1165 94.4644 29.337 94.9885 29.3783C96.1476 29.4695 97.7001 29.503 98.5513 28.561C99.2655 27.7698 99.2247 26.6015 98.3506 25.9402ZM44.9081 92.4032C44.9593 93.02 45.1116 93.5827 45.4109 94.0438C45.1911 93.5169 45.0263 92.968 44.9081 92.4032Z" fill="#C1DEE2"/>
<g opacity="0.7">
<path opacity="0.7" fill-rule="evenodd" clip-rule="evenodd" d="M212.196 134.745C217.878 134.451 224.906 137.767 225.512 143.943C225.953 148.431 225.816 152.905 226.498 157.386C227.043 160.967 228.195 164.405 229.767 167.667C231.279 170.803 234.414 173.474 235.23 176.825C235.749 178.96 235.458 181.964 234.742 184.052C233.87 186.591 234.333 186.391 236.07 188.522C239.474 192.697 242.539 196.979 244.706 201.966C247.828 209.149 249.875 217.546 248.716 225.409C248.568 226.407 248.394 229.99 247.018 230.241C245.483 230.521 246.201 228.472 246.283 227.81C246.805 223.586 247.269 219.894 246.639 215.604C244.207 199.052 232.332 188.147 224.6 174.1C224.175 173.375 223.278 171.65 222.654 170.512C221.668 168.715 220.678 165.297 219.345 163.964C216.833 161.454 219.142 166.5 219.631 167.463C220.25 168.682 220.931 169.977 221.565 171.044C224.466 175.994 227.704 181.396 230.7 186.497C217.742 189.449 208.616 173.872 205.139 163.631C202.274 155.194 198.846 135.468 212.196 134.745Z" fill="#69A1AC"/>
<path opacity="0.7" fill-rule="evenodd" clip-rule="evenodd" d="M288.357 119.077C278.858 119.831 272.759 126.098 269.921 134.864C268.391 139.588 268.215 144.442 267.365 149.297C266.086 156.601 263.334 162.136 257.956 167.34C256.29 168.951 255.062 170.606 254.19 172.377C252.458 174.144 250.95 176.144 249.842 178.59C248.427 181.713 248.026 185.46 249.66 188.573C250.099 189.411 251.195 191.091 252.331 191.854C248.079 200.91 245.74 210.828 246.004 220.734C246.163 226.713 246.455 232.695 246.796 238.668C246.887 240.271 247.41 242.919 248.194 240.23C248.912 237.77 248.012 233.908 247.928 231.339C247.523 218.82 247.177 207.437 252.33 195.741C252.871 194.515 253.444 193.299 254.04 192.092C254.076 192.072 254.108 192.048 254.141 192.024C254.164 192.041 254.184 192.06 254.207 192.077C254.245 192.009 254.298 191.929 254.358 191.838C254.53 191.661 254.679 191.438 254.821 191.189C255.278 190.556 255.796 189.811 255.799 189.404C255.799 189.401 255.797 189.396 255.797 189.393C258.987 184.185 262.642 179.265 266.374 174.44C266.346 174.475 270.423 168.925 269.793 171.994C269.489 173.474 266.49 176.29 265.279 177.857C262.6 181.343 259.454 185.76 256.84 190.03C256.488 190.233 255.991 191.225 255.631 191.964C255.433 192.339 255.248 192.716 255.066 193.046C264.329 196.106 271.535 189.941 276.449 182.771C276.455 182.763 276.46 182.754 276.466 182.746C277.961 180.765 279.493 178.797 281.407 177.231C284.599 174.618 288.018 174.157 291.783 172.871C302.048 169.363 306.413 156.061 307.799 146.19C309.363 135.055 301.713 117.979 288.357 119.077Z" fill="#89C5CC"/>
<path opacity="0.7" fill-rule="evenodd" clip-rule="evenodd" d="M269.593 87.8927C259.843 98.0383 255.133 112.111 251.404 125.341C247.238 140.117 244.487 155.121 244.381 170.483C244.312 180.577 244.037 190.733 244.627 200.815C244.835 204.395 245.193 207.982 245.76 211.524C245.807 211.815 247.077 219.724 248.292 217.881C248.983 216.833 246.99 209.677 246.84 208.485C245.993 201.771 245.796 195.009 245.837 188.247C245.905 177.114 245.576 166.039 246.705 154.947C246.873 153.29 247.006 151.551 247.4 149.931C247.818 148.208 247.285 148.96 248.646 148.278C249.968 147.616 251.602 147.71 252.974 146.879C258.415 143.58 261.198 135.105 263.364 129.545C265.842 123.187 267.348 116.407 268.551 109.716C269.434 104.8 270.065 99.9136 270.422 94.934C270.535 93.3646 270.542 91.7236 270.85 90.1804C270.933 89.7643 271.35 89.028 271.335 88.6593C271.303 87.879 270.832 87.4204 270.794 86.7649C270.385 87.1319 269.985 87.5082 269.593 87.8927Z" fill="#89C5CC"/>
<path opacity="0.7" fill-rule="evenodd" clip-rule="evenodd" d="M216.432 223.071C216.432 239.85 230.036 253.451 246.816 253.451C263.597 253.451 277.2 239.85 277.2 223.071" fill="#89C5CC"/>
<path opacity="0.7" fill-rule="evenodd" clip-rule="evenodd" d="M267.639 196.471C275.158 195.916 283.556 201.983 287.183 208.295C290.108 213.384 289.615 220.068 287.809 225.475C286.599 229.095 283.96 234.257 279.558 234.307C274.05 234.37 273.785 227.564 273.678 223.585C273.537 218.295 272.868 213.687 268.7 210.081C268.185 209.636 267.645 209.22 267.105 208.803C266.626 208.433 266.147 208.064 265.685 207.674C265.611 207.612 265.537 207.55 265.463 207.487C263.988 206.248 262.441 204.947 262.252 202.905C261.979 199.946 263.649 199.413 266.2 199.963C266.282 199.981 266.506 200.066 266.81 200.181C268.112 200.674 270.892 201.728 270.366 200.469C270.168 199.994 269.445 199.618 268.532 199.336C266.171 199.08 263.354 198.782 262.544 198.96C253.805 200.877 250.403 212.98 249.499 220.67C249.402 221.5 249.323 222.333 249.254 223.167H247.649C247.76 221.153 247.907 219.143 248.244 217.151C249.532 209.534 253.559 198.346 262.391 197.109C262.717 197.064 263.916 197.056 265.367 197.141C266.055 196.757 266.826 196.524 267.639 196.471Z" fill="#69A1AC"/>
</g>
<g opacity="0.5">
<path opacity="0.5" fill-rule="evenodd" clip-rule="evenodd" d="M83.3361 79.2587C85.085 76.765 88.3311 70.4316 90.7926 69.5406C92.3783 68.9667 91.9159 74.9034 91.9355 76.0354C92.0117 80.4153 91.5855 84.7672 91.0589 89.11C90.11 96.9429 87.0079 103.918 82.7529 110.584C80.5636 114.014 77.9952 117.487 74.4382 119.627C72.8012 120.613 70.8312 120.777 69.2142 121.627C67.3309 122.615 68.3564 121.816 67.5078 123.778C66.3295 126.502 65.9524 130.017 65.4071 132.923C62.9036 146.267 56.8418 216.805 57.8927 230.378C57.986 231.581 56.3086 231.869 56.2246 230.4C55.7796 222.613 59.6313 168.685 61.575 151.05C63.5183 133.414 65.4849 117.834 67.4566 111.733C69.849 104.33 74.1693 95.4284 77.7658 88.5253C79.4365 85.3187 81.2575 82.2219 83.3361 79.2587Z" fill="#69A1AC"/>
<path opacity="0.5" fill-rule="evenodd" clip-rule="evenodd" d="M96.3183 165.754C100.87 162.413 105.796 168.718 101.677 172.06C99.4008 173.907 97.0204 173.25 95.6806 171.711C94.8107 172.771 93.9966 173.88 93.2141 174.816C90.8305 177.67 88.5779 180.591 86.4248 183.58C81.9521 189.791 78.1192 196.353 74.1115 202.794C70.1566 209.151 66.2333 215.541 62.6485 222.06C59.6117 227.582 55.564 234.079 54.5243 240.134C56.1018 227.293 62.0878 214.951 69.2159 203.631C76.2862 192.404 84.3999 180.143 95.3472 171.283C94.233 169.645 94.2022 167.306 96.3183 165.754Z" fill="#C1DEE2"/>
<path opacity="0.5" fill-rule="evenodd" clip-rule="evenodd" d="M9.95306 134.438C12.5 134.936 16.6616 140.697 18.7611 142.892C21.2561 145.5 23.5197 148.28 25.6534 151.194C30.2469 157.464 34.3549 164.13 37.8482 171.082C43.5429 182.415 48.1054 194.049 51.4164 206.389C53.4434 213.943 54.7557 221.773 55.5332 229.548C55.6802 231.015 57.2177 242.32 55.0021 242.625C53.0097 242.899 53.6253 234.041 53.5291 232.835C52.4424 219.241 49.1872 206.014 44.6596 193.2C43.6731 190.409 42.7571 186.99 41.1796 184.478C40.0438 182.669 41.1715 183.3 39.1754 182.615C37.4615 182.026 35.5087 182.17 33.7536 181.45C29.9408 179.887 26.8878 176.852 24.2117 173.799C19.011 167.865 14.8897 161.447 12.7415 153.844C11.5498 149.629 10.4547 145.389 9.84697 141.043C9.68976 139.92 8.31258 134.117 9.95306 134.438Z" fill="#69A1AC"/>
<path opacity="0.5" fill-rule="evenodd" clip-rule="evenodd" d="M20.0039 38.5862C29.5977 55.2225 37.4814 73.4972 42.5718 92.0066C45.6564 103.221 47.8133 114.729 49.9564 126.154C53.2744 143.844 56.4131 161.532 57.3059 179.536C58.2041 197.645 59.9801 218.531 54.0503 235.972C57.0125 218.265 54.1922 199.416 53.6927 181.599C53.4542 173.093 52.7629 164.67 51.8555 156.214C50.9752 148.011 49.5372 139.847 48.1983 131.709C47.546 127.745 46.861 123.788 46.1634 119.833C45.9549 118.652 45.867 115.151 45.1183 114.344C44.3649 113.533 40.5204 113.202 39.3135 112.607C36.883 111.408 34.5968 109.704 32.5735 107.904C28.6947 104.454 25.3204 99.9452 22.6571 95.5009C16.4949 85.218 14.0313 72.6686 14.1558 60.7593C14.1797 58.447 17.8987 33.548 16.4051 33.2051C16.4951 33.0998 16.5801 32.9911 16.6603 32.8779C17.7911 34.771 18.9007 36.677 20.0039 38.5862Z" fill="#89C5CC"/>
<path opacity="0.5" fill-rule="evenodd" clip-rule="evenodd" d="M123.552 98.5868C123.7 98.3733 124.664 96.8888 124.179 96.9837C125.166 96.7902 122.82 98.6209 125.281 97.4977C124.112 98.6014 124.787 100.035 124.802 101.52C124.828 103.932 124.425 106.323 123.97 108.683C123.252 112.413 122.183 116.04 120.631 119.509C117.249 127.07 111.505 134.348 104.686 139.075C101.32 141.408 98.0206 142.203 94.1814 143.277C91.7561 143.956 91.5638 145.21 90.2765 147.563C87.5969 152.464 84.9647 157.347 82.601 162.413C79.7791 168.463 77.0396 174.519 74.4553 180.676C65.7493 201.412 58.6636 222.895 54.9426 245.128C54.8515 232.026 57.8828 218.532 61.7061 206.044C64.4915 196.946 68.1171 188.175 71.9846 179.493C72.9215 177.389 74.3416 174.684 74.74 172.362C75.0184 170.734 74.1664 169.17 73.7764 167.456C72.2556 160.781 72.3646 153.304 73.6998 146.594C75.1724 139.195 79.4303 135.761 86.6333 134.713C89.2676 134.329 92.616 134.47 95.0313 133.346C97.6631 132.124 98.7486 128.103 100.245 125.523C104.265 118.591 109.04 111.943 114.524 106.102C116.042 104.485 117.675 102.992 119.407 101.609C120.5 100.737 122.808 99.6618 123.552 98.5868Z" fill="#89C5CC"/>
<path opacity="0.5" fill-rule="evenodd" clip-rule="evenodd" d="M40.7247 233.362C40.5393 232.106 41.5132 230.978 42.7833 230.978H68.3464C69.6163 230.978 70.5903 232.106 70.405 233.362L68.4293 246.759C67.827 250.842 64.3225 253.868 60.194 253.868H50.9357C46.8073 253.868 43.3027 250.842 42.7005 246.759L40.7247 233.362Z" fill="#C1DEE2"/>
</g>
<path fill-rule="evenodd" clip-rule="evenodd" d="M19.736 237.827C19.736 246.686 20.4352 253.868 29.8201 253.868C39.2049 253.868 39.9041 246.686 39.9041 237.827" fill="#F2F2F2"/>
<path fill-rule="evenodd" clip-rule="evenodd" d="M32.612 232.299C32.268 232.894 31.9612 233.5 31.6903 234.116C31.6807 232.848 31.7508 231.571 31.9423 230.276C32.2697 228.058 32.7696 225.851 33.2394 223.648C33.577 222.065 33.5557 219.222 34.837 217.96C35.1884 217.687 35.273 218.223 35.273 218.454C35.2774 218.503 35.272 217.507 34.931 217.681C32.9037 218.727 32.2469 222.019 31.5978 223.667C30.6509 226.073 29.8452 228.533 29.5135 231.035C29.4296 231.668 29.384 232.3 29.3735 232.931C29.3046 232.762 29.2399 232.592 29.1683 232.424C27.9982 229.68 26.4192 227.002 24.4498 224.533C23.9651 223.925 17.8699 217.93 17.3928 218.848C17.4398 218.981 17.5384 219.092 17.6887 219.18C17.6975 219.19 17.6978 219.184 17.6926 219.169C18.0506 219.748 19.0684 220.641 19.3854 221.147C20.1833 222.422 20.8034 223.775 21.4335 225.102C22.7649 227.907 23.9999 230.74 25.1971 233.579C25.4759 234.24 25.7665 234.898 26.0629 235.553C23.0071 231.147 18.9306 227.145 13.3189 224.855C15.2356 225.83 16.4922 227.664 17.7865 229.069C19.3476 230.763 20.9919 232.411 22.556 234.103C24.4008 236.1 26.5715 238.202 28.3459 240.411C30.0647 244.019 31.7349 247.631 32.766 251.424C32.3435 250.114 32.7328 248.303 32.6605 246.927C32.6031 245.833 32.4751 244.747 32.2998 243.663C32.5166 244.152 32.7034 244.641 32.788 245.096C32.7108 244.333 32.6218 243.575 32.5261 242.82C32.7716 242.114 33.0126 241.455 33.1754 240.912C34.0098 238.127 35.0033 235.39 36.3563 232.723C37.6082 230.255 39.0443 227.819 40.6091 225.457C41.339 224.356 42.079 223.259 42.8145 222.16C43.2956 221.44 43.7539 220.289 44.424 219.599C40.0925 223.559 35.3601 227.547 32.612 232.299Z" fill="#F2F2F2"/>
<path fill-rule="evenodd" clip-rule="evenodd" d="M295.361 51.5339C294.119 47.3925 291.204 44.1509 288.177 41.1811C282.286 35.3992 279.118 31.8243 277.018 23.3665C275.783 18.3923 274.526 13.121 270.609 9.51217C267.757 6.88414 262.849 4.67607 259.035 6.55798C253.168 10.0597 251.592 17.2458 252.184 23.6805C252.918 31.6558 256.643 36.5735 263.801 39.511C267.834 41.1654 270.515 43.3485 272.704 47.1524C274.455 50.1938 275.476 54.0026 277.677 56.7598C280.967 60.882 285.084 62.7141 290.158 62.0294C285.405 53.2852 279.852 44.4585 273.154 37.096C272.526 36.3558 268.828 33.5227 269.574 32.2612C270.396 30.8723 274.192 36.0898 274.165 36.0583C276.112 38.2925 277.913 40.6668 279.682 43.0639C279.678 43.0659 279.672 43.0672 279.667 43.0697C281.489 45.5297 283.295 48.0255 285.067 50.5525C285.784 51.6217 286.482 52.7042 287.15 53.8141C288.129 55.4426 289.685 60.0647 291.289 61.066C291.631 61.2799 291.949 61.3998 292.245 61.4489C293.34 63.2405 294.404 65.0463 295.417 66.8733C298.061 71.6452 300.331 76.6834 301.372 82.0708C301.676 83.6436 301.461 89.5254 302.535 90.6607C304.497 92.737 303.922 88.7384 303.805 87.5315C302.83 77.5378 299.242 69.0237 294.032 60.6219C295.633 58.5315 295.864 53.2119 295.361 51.5339Z" fill="#F2F2F2"/>
<path fill-rule="evenodd" clip-rule="evenodd" d="M228.141 56.3628C230.21 53.9252 235.184 53.5116 238.226 53.6747C241.99 53.8765 245.856 54.793 249.438 55.9008C255.337 57.7253 261.069 61.0556 266.265 64.2789C266.891 64.6672 274.604 69.3055 273.922 70.1195C273.245 70.9261 265.673 65.4163 263.985 64.4666C260.384 62.4398 257.081 60.0426 253.111 58.7038C249.001 57.3175 244.654 56.7686 240.332 56.8064C239.777 56.8114 237.967 56.4248 237.928 57.2455C237.89 58.0479 240.884 57.6292 241.412 57.6342C243.593 57.6542 245.787 57.8594 247.936 58.2372C251.964 58.9452 255.75 60.371 259.2 62.5584C258.237 64.7962 255.93 65.8279 253.509 65.2677C251.417 64.7837 249.378 63.5897 247.33 63.2447C245.919 63.007 244.507 63.1485 243.139 63.546C239.53 64.5943 237.449 66.7426 233.481 65.2482C230.371 64.077 225.169 59.8682 228.141 56.3628Z" fill="#F2F2F2"/>
<path fill-rule="evenodd" clip-rule="evenodd" d="M219.243 17.0846C214.649 16.7495 209.518 20.4158 207.302 24.2311C205.515 27.3073 205.816 31.3467 206.92 34.6148C207.659 36.8028 209.271 39.9223 211.961 39.9527C215.326 39.9907 215.488 35.8772 215.553 33.4724C215.64 30.2753 216.048 27.4901 218.595 25.3109C218.909 25.042 219.239 24.7901 219.569 24.5383C219.862 24.3148 220.155 24.0913 220.436 23.8559C220.481 23.8183 220.527 23.7807 220.572 23.7429C221.473 22.9942 222.419 22.2078 222.534 20.9737C222.701 19.1851 221.68 18.8633 220.122 19.1956C220.071 19.2062 219.935 19.2575 219.749 19.3271C218.953 19.6255 217.255 20.2622 217.577 19.5011C217.697 19.2143 218.139 18.987 218.697 18.8168C220.14 18.6616 221.861 18.4815 222.356 18.5891C227.694 19.7477 229.773 27.063 230.325 31.7109C230.388 32.2371 230.438 32.7652 230.481 33.2941H231.46C231.391 32.052 231.302 30.8119 231.092 29.5837C230.305 24.9799 227.845 18.2181 222.449 17.4708C222.25 17.443 221.517 17.4383 220.63 17.4898C220.21 17.2574 219.739 17.1169 219.243 17.0846Z" fill="#F2F2F2"/>
<path d="M207.432 55.0135H112.222C104.335 55.0135 97.9407 61.4068 97.9407 69.2934V154.974C97.9407 162.86 104.335 169.254 112.222 169.254H207.432C215.319 169.254 221.713 162.86 221.713 154.974V69.2934C221.713 61.4068 215.319 55.0135 207.432 55.0135Z" fill="url(#paint0_linear)" stroke="#C5CFD6" stroke-width="10" stroke-linejoin="round"/>
<path d="M205.451 48.2765H113.787C101.995 48.2765 92.4 57.1972 92.4 68.1593V86.1485H103.222C103.222 81.4145 102.741 76.6805 107.912 76.6805H211.326C216.497 76.6805 216.849 81.4145 216.849 86.1485H226.838V68.1593C226.838 57.1972 217.243 48.2765 205.451 48.2765Z" fill="#FFD600"/>
<path d="M171.728 107.374C175.672 107.374 178.869 104.177 178.869 100.234C178.869 96.2903 175.672 93.0937 171.728 93.0937C167.785 93.0937 164.588 96.2903 164.588 100.234C164.588 104.177 167.785 107.374 171.728 107.374Z" fill="white"/>
<path d="M195.53 107.374C199.474 107.374 202.671 104.177 202.671 100.234C202.671 96.2903 199.474 93.0937 195.53 93.0937C191.587 93.0937 188.39 96.2903 188.39 100.234C188.39 104.177 191.587 107.374 195.53 107.374Z" fill="white"/>
<path d="M171.728 131.174C175.672 131.174 178.869 127.977 178.869 124.033C178.869 120.09 175.672 116.894 171.728 116.894C167.785 116.894 164.588 120.09 164.588 124.033C164.588 127.977 167.785 131.174 171.728 131.174Z" fill="white"/>
<path d="M195.53 131.174C199.474 131.174 202.671 127.977 202.671 124.033C202.671 120.09 199.474 116.894 195.53 116.894C191.587 116.894 188.39 120.09 188.39 124.033C188.39 127.977 191.587 131.174 195.53 131.174Z" fill="white"/>
<path d="M124.124 131.174C128.067 131.174 131.264 127.977 131.264 124.033C131.264 120.09 128.067 116.894 124.124 116.894C120.18 116.894 116.983 120.09 116.983 124.033C116.983 127.977 120.18 131.174 124.124 131.174Z" fill="white"/>
<path d="M147.926 131.174C151.869 131.174 155.066 127.977 155.066 124.033C155.066 120.09 151.869 116.894 147.926 116.894C143.982 116.894 140.785 120.09 140.785 124.033C140.785 127.977 143.982 131.174 147.926 131.174Z" fill="white"/>
<path d="M124.124 154.974C128.067 154.974 131.264 151.777 131.264 147.834C131.264 143.891 128.067 140.693 124.124 140.693C120.18 140.693 116.983 143.891 116.983 147.834C116.983 151.777 120.18 154.974 124.124 154.974Z" fill="white"/>
<path d="M147.926 154.974C151.869 154.974 155.066 151.777 155.066 147.834C155.066 143.891 151.869 140.693 147.926 140.693C143.982 140.693 140.785 143.891 140.785 147.834C140.785 151.777 143.982 154.974 147.926 154.974Z" fill="white"/>
<path d="M171.728 154.974C175.672 154.974 178.869 151.777 178.869 147.834C178.869 143.891 175.672 140.693 171.728 140.693C167.785 140.693 164.588 143.891 164.588 147.834C164.588 151.777 167.785 154.974 171.728 154.974Z" fill="white"/>
<path d="M121.743 45.4931V55.0135" stroke="#C5CFD6" stroke-width="10" stroke-linecap="round" stroke-linejoin="round"/>
<path d="M197.911 45.4931V55.0135" stroke="#C5CFD6" stroke-width="10" stroke-linecap="round" stroke-linejoin="round"/>
<path fill-rule="evenodd" clip-rule="evenodd" d="M67.9277 55.4364C66.568 56.8797 64.6421 57.7861 62.4999 57.7861C58.3835 57.7861 55.0467 54.46 55.0467 50.3573C55.0467 46.2547 58.3835 42.9286 62.4999 42.9286V29.1323C50.79 29.1323 41.2054 38.6857 41.2054 50.3573C41.2054 62.029 50.79 71.5823 62.4999 71.5823C68.6507 71.5823 74.2097 68.9887 77.9989 64.8623L67.9277 55.4364Z" fill="#F2F2F2"/>
<path fill-rule="evenodd" clip-rule="evenodd" d="M62.4324 29.1323V42.9286C66.5355 42.9286 69.8619 46.2547 69.8619 50.3574H83.6595C83.6595 38.6857 74.1052 29.1323 62.4324 29.1323Z" fill="#AFB9C5"/>
<path fill-rule="evenodd" clip-rule="evenodd" d="M69.5768 50.3574C69.5768 52.7678 68.4413 54.9103 66.6778 56.2937L75.3539 67.3373C80.4042 63.3837 83.6594 57.2551 83.6594 50.3574H69.5768Z" fill="#C5CFD6"/>
<path fill-rule="evenodd" clip-rule="evenodd" d="M299.672 191.633C298.951 192.397 297.932 192.877 296.798 192.877C294.619 192.877 292.852 191.116 292.852 188.944C292.852 186.772 294.619 185.011 296.798 185.011V177.707C290.598 177.707 285.524 182.765 285.524 188.944C285.524 195.123 290.598 200.181 296.798 200.181C300.054 200.181 302.997 198.808 305.003 196.623L299.672 191.633Z" fill="#F2F2F2"/>
<path fill-rule="evenodd" clip-rule="evenodd" d="M296.762 177.707V185.011C298.934 185.011 300.695 186.772 300.695 188.944H308C308 182.765 302.942 177.707 296.762 177.707Z" fill="#AFB9C5"/>
<path fill-rule="evenodd" clip-rule="evenodd" d="M300.544 188.944C300.544 190.22 299.943 191.355 299.01 192.087L303.603 197.934C306.276 195.841 308 192.596 308 188.944H300.544Z" fill="#C5CFD6"/>
<path fill-rule="evenodd" clip-rule="evenodd" d="M236.332 106.199C236.33 106.206 236.327 106.213 236.323 106.22C236.327 106.214 236.332 106.187 236.332 106.199Z" fill="#C5CFD6"/>
<path fill-rule="evenodd" clip-rule="evenodd" d="M236.326 106.21C236.326 106.211 236.325 106.214 236.325 106.217C236.325 106.21 236.337 106.188 236.326 106.21Z" fill="#C5CFD6"/>
<path fill-rule="evenodd" clip-rule="evenodd" d="M236.372 106.097C236.363 106.123 236.351 106.148 236.34 106.175C236.345 106.162 236.351 106.151 236.356 106.138C236.218 106.484 236.306 106.259 236.372 106.097Z" fill="#C5CFD6"/>
<path fill-rule="evenodd" clip-rule="evenodd" d="M236.343 106.177C236.337 106.189 236.332 106.202 236.326 106.214C236.288 106.289 236.343 106.177 236.343 106.177Z" fill="#C5CFD6"/>
<path fill-rule="evenodd" clip-rule="evenodd" d="M236.327 106.21C236.327 106.209 236.327 106.209 236.329 106.207C236.327 106.209 236.327 106.209 236.327 106.21Z" fill="#C5CFD6"/>
<path fill-rule="evenodd" clip-rule="evenodd" d="M236.321 106.219C236.313 106.236 236.358 106.158 236.321 106.219V106.219Z" fill="#C5CFD6"/>
<path fill-rule="evenodd" clip-rule="evenodd" d="M236.326 106.21L236.329 106.207C236.328 106.209 236.328 106.21 236.326 106.21Z" fill="#C5CFD6"/>
<path d="M265.962 71.5824H206.027C205.108 71.5824 204.362 72.3277 204.362 73.2471V111.868C204.362 112.788 205.108 113.533 206.027 113.533H265.962C266.882 113.533 267.627 112.788 267.627 111.868V73.2471C267.627 72.3277 266.882 71.5824 265.962 71.5824Z" fill="#DDE3E9"/>
<path fill-rule="evenodd" clip-rule="evenodd" d="M228.336 83.5682L209.69 113.533H246.983L228.336 83.5682Z" fill="#AFB9C5"/>
<path fill-rule="evenodd" clip-rule="evenodd" d="M246.65 91.5588L230.334 113.533H262.965L246.65 91.5588Z" fill="#C5CFD6"/>
<path fill-rule="evenodd" clip-rule="evenodd" d="M253.642 91.5588C256.952 91.5588 259.636 88.8757 259.636 85.5659C259.636 82.256 256.952 79.5729 253.642 79.5729C250.332 79.5729 247.649 82.256 247.649 85.5659C247.649 88.8757 250.332 91.5588 253.642 91.5588Z" fill="white"/>
<path fill-rule="evenodd" clip-rule="evenodd" d="M75.253 214.357C75.2509 214.362 75.2487 214.368 75.2456 214.374C75.2487 214.368 75.253 214.348 75.253 214.357Z" fill="#C5CFD6"/>
<path fill-rule="evenodd" clip-rule="evenodd" d="M75.2482 214.365C75.2482 214.366 75.2473 214.368 75.2473 214.37C75.2473 214.365 75.2566 214.35 75.2482 214.365Z" fill="#C5CFD6"/>
<path fill-rule="evenodd" clip-rule="evenodd" d="M75.2823 214.282C75.2752 214.301 75.2665 214.32 75.2586 214.34C75.2627 214.33 75.2665 214.322 75.2702 214.312C75.1687 214.566 75.2332 214.401 75.2823 214.282Z" fill="#C5CFD6"/>
<path fill-rule="evenodd" clip-rule="evenodd" d="M75.2602 214.341C75.2565 214.35 75.2523 214.36 75.2486 214.368C75.2202 214.423 75.2602 214.341 75.2602 214.341Z" fill="#C5CFD6"/>
<path fill-rule="evenodd" clip-rule="evenodd" d="M75.2486 214.366C75.2486 214.364 75.2486 214.364 75.2502 214.363C75.2486 214.364 75.2486 214.364 75.2486 214.366Z" fill="#C5CFD6"/>
<path fill-rule="evenodd" clip-rule="evenodd" d="M75.244 214.373C75.2379 214.385 75.2727 214.326 75.244 214.373V214.373Z" fill="#C5CFD6"/>
<path fill-rule="evenodd" clip-rule="evenodd" d="M75.2481 214.366L75.2509 214.363C75.2498 214.364 75.2498 214.366 75.2481 214.366Z" fill="#C5CFD6"/>
<path d="M96.5622 188.944H53.4476C52.5281 188.944 51.7827 189.689 51.7827 190.609V218.076C51.7827 218.996 52.5281 219.741 53.4476 219.741H96.5622C97.4816 219.741 98.227 218.996 98.227 218.076V190.609C98.227 189.689 97.4816 188.944 96.5622 188.944Z" fill="#DDE3E9"/>
<path fill-rule="evenodd" clip-rule="evenodd" d="M69.3824 197.743L55.6939 219.741H83.0714L69.3824 197.743Z" fill="#AFB9C5"/>
<path fill-rule="evenodd" clip-rule="evenodd" d="M82.827 203.609L70.8492 219.741H94.8049L82.827 203.609Z" fill="#C5CFD6"/>
<path fill-rule="evenodd" clip-rule="evenodd" d="M87.9602 203.609C90.3905 203.609 92.3605 201.64 92.3605 199.21C92.3605 196.78 90.3905 194.81 87.9602 194.81C85.5304 194.81 83.5604 196.78 83.5604 199.21C83.5604 201.64 85.5304 203.609 87.9602 203.609Z" fill="white"/>
<path fill-rule="evenodd" clip-rule="evenodd" d="M132.645 114.625C135.457 116.318 138.22 117.136 139.517 116.802C142.769 115.965 143.068 104.08 140.552 99.3954C138.036 94.7101 125.099 92.6679 124.447 101.951C124.221 105.172 125.575 108.048 127.576 110.394L123.988 127.098H134.41L132.645 114.625Z" fill="#B28B67"/>
<path fill-rule="evenodd" clip-rule="evenodd" d="M134.611 93.9955C133.238 93.7704 129.539 93.616 128.858 93.616C128.421 93.616 127.949 93.7155 127.691 93.3155C127.48 92.9884 127.557 92.4345 127.494 92.0549C127.421 91.6134 127.317 91.178 127.211 90.7431C126.912 89.5067 126.459 88.3306 125.825 87.226C124.636 85.1539 122.894 83.5312 120.695 82.5865C118.267 81.544 115.518 81.3051 112.906 81.5165C110.111 81.7429 107.58 82.6647 104.941 83.532C102.426 84.3586 99.7912 84.684 97.1607 84.2803C94.5102 83.8737 92.5078 82.4387 90.2723 81.077C87.9835 79.6828 85.368 78.7706 82.6626 78.9803C80.137 79.1759 77.8095 80.2176 75.721 81.6093C73.7673 82.9111 72.1548 84.4772 71.2446 86.6817C70.2656 89.053 70.2665 91.6562 71.8768 93.7517C74.2105 96.7898 78.5433 97.5751 82.1482 97.4968C84.2334 97.4519 86.2812 97.0719 88.2495 96.3802C90.875 95.458 93.1438 93.8944 95.5999 92.6259C96.7524 92.0308 97.9436 91.5422 99.1926 91.1901C100.404 90.848 101.598 90.6911 102.695 91.4223C103.856 92.196 104.896 92.9559 106.224 93.4404C107.497 93.9048 108.847 94.1645 110.204 94.1541C112.845 94.1337 115.448 93.3122 118.012 92.7616C120.103 92.3125 122.341 91.8656 124.473 92.2967C125.363 92.4769 126.662 92.8486 126.984 93.7721C121.576 94.7513 119.451 101.432 120.976 106.337C121.799 108.984 126.745 112.079 128.669 110.687C129.887 109.805 129.147 108.648 128.669 107.884C127.752 106.421 127.438 104.541 129.135 103.522C130.598 102.644 132.137 104.73 132.166 104.728C132.568 104.696 136.043 102.733 138.437 99.8682C140.799 100.008 141.158 98.4524 140.594 97.1801C140.03 95.9079 136.509 94.3068 134.611 93.9955Z" fill="#191847"/>
<path fill-rule="evenodd" clip-rule="evenodd" d="M115.583 163.1C116.366 173.775 166.808 205.202 167.102 206.084C167.299 206.672 151.402 243.25 151.402 243.25L155.811 244.961C155.811 244.961 180.195 206.223 178.942 202.095C177.149 196.186 139.805 163.214 139.805 163.214L115.583 163.1Z" fill="#B28B67"/>
<path fill-rule="evenodd" clip-rule="evenodd" d="M152.562 237.742L159.761 240.36C174.942 223.252 180.892 209.135 179.807 201.943C178.722 194.751 140.804 163.126 140.804 163.126H115.066C115.945 187.847 162.699 206.178 163.324 207.232C163.949 208.285 157.795 218.603 152.562 237.742Z" fill="#2F3676"/>
<path fill-rule="evenodd" clip-rule="evenodd" d="M151.048 242.337C150.696 242 150.131 242.005 149.817 242.378C149.221 243.087 148.354 244.191 148.099 244.892C147.697 245.995 147.294 248.244 147.294 248.244C148.575 248.71 170.31 256.611 170.31 256.611C170.31 256.611 172.286 253.975 170.439 253.036C168.593 252.097 167.383 251.442 167.383 251.442L158.409 242.776C158.24 242.613 157.97 242.622 157.812 242.795L156.505 244.225C156.505 244.225 154.412 244.408 153.293 244.001C152.601 243.75 151.663 242.928 151.048 242.337Z" fill="#E4E4E4"/>
<path fill-rule="evenodd" clip-rule="evenodd" d="M121.382 163.1L98.9117 216.985L76.8264 262.54H82.0371L139.045 163.1H121.382Z" fill="#997659"/>
<path fill-rule="evenodd" clip-rule="evenodd" d="M77.6822 259.936C77.2364 259.739 76.707 259.937 76.5401 260.395C76.2225 261.266 75.7859 262.598 75.7859 263.345C75.7859 264.518 76.1776 266.769 76.1776 266.769C77.5402 266.769 100.67 266.769 100.67 266.769C100.67 266.769 101.625 263.617 99.5677 263.365C97.5107 263.114 96.1501 262.911 96.1501 262.911L84.7491 257.834C84.5352 257.739 84.2846 257.839 84.1951 258.056L83.4563 259.846C83.4563 259.846 81.5522 260.733 80.3618 260.733C79.6255 260.733 78.4626 260.281 77.6822 259.936Z" fill="#E4E4E4"/>
<path fill-rule="evenodd" clip-rule="evenodd" d="M78.8209 253.076L90.3988 255.245C99.3512 242.099 136.816 188.194 140.924 163.1H115.148C101.431 181.241 87.3542 239.713 78.8209 253.076Z" fill="#5C63AB"/>
<path fill-rule="evenodd" clip-rule="evenodd" d="M176.2 144.32L160.465 151.222L165.49 157.652L177.274 148.627C183.16 147.547 185.89 146.619 185.463 145.844C185.104 145.189 184.435 145.153 183.818 145.119C183.338 145.092 182.89 145.067 182.645 144.755C182.086 144.039 183.466 141.829 184.865 139.788C186.264 137.747 184.953 137.82 184.185 138.064C181.618 139.491 178.957 141.577 176.2 144.32ZM105.749 154.887L96.851 153.124C90.8159 169.012 87.2181 177.719 86.0573 179.244C85.2057 180.362 79.956 183.243 76.4027 184.781C74.9764 185.399 75.2827 186.603 75.701 186.988C78.3394 189.417 80.7926 188.566 83.463 187.639C84.2359 187.371 85.0272 187.096 85.8463 186.892C87.9669 186.366 88.612 187.456 89.2218 188.485C89.762 189.397 90.274 190.261 91.7574 189.916C91.6899 189.625 91.6071 189.299 91.5176 188.947C90.9395 186.674 90.0867 183.322 91.352 181.375C92.0013 180.375 96.8002 171.546 105.749 154.887Z" fill="#B28B67"/>
<path fill-rule="evenodd" clip-rule="evenodd" d="M129.935 119.868L133.69 119.225C141.869 127.149 145.207 146.189 150.657 148.709C155.811 151.092 163.116 148.786 171.799 145.673L174.458 151.607C166.568 160.133 149.76 167.337 142.947 163.224C132.055 156.65 129.54 133.168 129.935 119.868Z" fill="#DB2721"/>
<path fill-rule="evenodd" clip-rule="evenodd" d="M113.566 167.004C113.566 167.004 136.151 167.004 146.791 167.004C148.309 167.004 148.024 164.814 147.804 163.709C145.271 150.956 135.383 137.21 135.383 119.056L125.8 117.555C117.873 130.29 115.131 145.969 113.566 167.004Z" fill="#DDE3E9"/>
<path fill-rule="evenodd" clip-rule="evenodd" d="M125.291 117.555H125.181C103.685 130.787 90.6943 151.298 86.208 179.088L93.1725 180.451C97.7858 175.082 103.479 166.296 110.252 154.092C108.174 161.444 106.657 168.983 106.184 176.113H136.091C141.881 161.498 128.976 117.555 128.976 117.555H126.911H125.291Z" fill="#FF4133"/>
<path fill-rule="evenodd" clip-rule="evenodd" d="M192.074 129.168C194.882 130.86 197.642 131.677 198.937 131.344C202.185 130.507 202.483 118.631 199.97 113.949C197.457 109.268 184.538 107.227 183.887 116.503C183.661 119.722 185.013 122.596 187.011 124.94L183.429 141.632H193.836L192.074 129.168Z" fill="#B28B67"/>
<path fill-rule="evenodd" clip-rule="evenodd" d="M204.581 107.459C204.365 106.702 203.786 106.053 203.004 105.861C202.815 105.814 202.619 105.795 202.425 105.803C202.355 105.806 202.335 105.826 202.302 105.777C202.278 105.741 202.277 105.653 202.268 105.61C202.237 105.477 202.198 105.347 202.15 105.219C201.986 104.785 201.712 104.4 201.38 104.077C200.761 103.471 199.924 103.052 199.055 102.977C198.578 102.935 198.106 103.012 197.656 103.167C197.423 103.248 197.197 103.347 196.977 103.457C196.911 103.491 196.696 103.653 196.63 103.642C196.556 103.631 196.409 103.449 196.349 103.403C195.611 102.837 194.7 102.615 193.781 102.622C192.743 102.629 191.745 102.681 190.88 103.313C190.697 103.447 190.522 103.593 190.356 103.747C190.269 103.829 190.184 103.913 190.103 104.001C190.054 104.054 190.007 104.108 189.961 104.164C189.884 104.258 189.896 104.289 189.788 104.223C189.371 103.97 188.888 103.852 188.403 103.912C188.114 103.947 187.833 104.034 187.567 104.148C187.476 104.186 187.266 104.341 187.169 104.343C187.073 104.344 186.866 104.201 186.767 104.164C186.233 103.967 185.658 103.919 185.096 104.01C184.517 104.104 183.949 104.335 183.458 104.653C183.223 104.807 183.017 104.977 182.851 105.205C182.78 105.304 182.715 105.408 182.634 105.499C182.587 105.553 182.493 105.608 182.468 105.676C182.483 105.635 181.834 105.385 181.773 105.369C181.447 105.284 181.116 105.301 180.796 105.406C180.196 105.604 179.68 106.046 179.256 106.5C179.038 106.733 178.847 106.991 178.686 107.266C178.608 107.397 178.537 107.532 178.472 107.671C178.441 107.737 178.42 107.821 178.379 107.881C178.325 107.959 178.289 107.961 178.193 107.994C177.701 108.166 177.254 108.458 176.913 108.851C176.568 109.249 176.344 109.739 176.25 110.255C176.245 110.286 176.241 110.412 176.223 110.428C176.199 110.451 176.1 110.441 176.063 110.445C175.933 110.46 175.805 110.483 175.678 110.513C175.445 110.568 175.217 110.649 175.002 110.756C174.163 111.171 173.563 111.948 173.27 112.823C172.962 113.741 172.967 114.794 173.335 115.695C173.395 115.84 173.466 115.981 173.549 116.115C173.6 116.197 173.616 116.197 173.583 116.283C173.546 116.379 173.478 116.472 173.435 116.566C173.292 116.871 173.192 117.195 173.128 117.526C173.025 118.068 172.974 118.639 173.076 119.185C173.123 119.439 173.206 119.687 173.332 119.913C173.396 120.029 173.472 120.138 173.557 120.239C173.601 120.292 173.648 120.342 173.697 120.39C173.725 120.417 173.762 120.441 173.786 120.472C173.844 120.547 173.856 120.485 173.826 120.595C173.784 120.749 173.689 120.9 173.631 121.049C173.57 121.203 173.516 121.359 173.467 121.516C173.366 121.836 173.281 122.16 173.228 122.491C173.126 123.125 173.144 123.801 173.444 124.383C173.573 124.632 173.757 124.85 173.98 125.02C174.089 125.103 174.208 125.175 174.332 125.234C174.395 125.264 174.477 125.277 174.506 125.339C174.537 125.405 174.491 125.537 174.48 125.611C174.388 126.256 174.342 126.933 174.534 127.566C174.711 128.148 175.099 128.662 175.605 129.002C176.584 129.662 177.905 129.625 178.935 129.097C179.204 128.959 179.455 128.788 179.678 128.586C180.249 129.353 181.423 129.329 182.256 129.11C183.295 128.838 184.128 128.116 184.609 127.168C185.265 127.967 186.643 127.707 187.098 126.841C187.209 126.629 187.276 126.395 187.308 126.158C187.325 126.034 187.314 125.909 187.327 125.785C187.343 125.628 187.449 125.475 187.509 125.323C187.627 125.027 187.7 124.721 187.703 124.402C187.704 124.235 187.684 124.073 187.668 123.907C187.653 123.758 187.695 123.62 187.718 123.473C187.452 123.517 187.127 123.445 186.876 123.368C186.63 123.292 186.4 123.093 186.226 122.91C185.822 122.487 185.575 121.932 185.407 121.38C185.036 120.169 185.188 118.715 186.407 118.05C186.976 117.74 188.677 117.741 189.354 117.894C190.065 118.056 190.871 119.624 190.911 119.771C190.936 119.863 190.923 119.976 191.007 120.037C191.192 120.17 191.496 119.938 191.632 119.824C191.866 119.626 192.034 119.363 192.179 119.097C192.495 118.516 192.749 117.893 192.929 117.257C193.068 116.767 193.156 116.262 193.337 115.784C193.518 115.309 193.802 114.884 194.244 114.615C194.725 114.322 195.276 114.168 195.804 113.984C196.327 113.801 196.842 113.578 197.247 113.191C197.336 113.106 197.423 113.016 197.495 112.916C197.551 112.837 197.607 112.685 197.694 112.635C197.828 112.557 198.024 112.76 198.14 112.833C198.712 113.197 199.19 113.704 199.575 114.258C199.959 114.809 200.273 115.339 200.528 115.954C200.718 116.41 200.836 116.994 201.17 117.368C201.318 117.535 202.425 117.636 202.783 117.49C203.141 117.344 203.543 116.966 203.663 116.729C203.786 116.486 203.815 116.219 203.763 115.954C203.732 115.797 203.669 115.651 203.634 115.498C203.605 115.369 203.578 115.247 203.516 115.129C203.397 114.905 203.193 114.744 202.948 114.677C203.203 114.441 203.415 114.16 203.561 113.845C203.713 113.519 203.842 113.121 203.879 112.763C203.908 112.471 203.863 112.17 203.703 111.919C203.536 111.656 203.239 111.485 202.982 111.321C203.374 111.015 203.71 110.642 203.985 110.229C204.522 109.427 204.853 108.416 204.581 107.459Z" fill="#191847"/>
<path fill-rule="evenodd" clip-rule="evenodd" d="M179.959 177.609L200.811 232.756L215.426 273.403H223.76L203.67 177.609H179.959Z" fill="#1F28CF"/>
<path fill-rule="evenodd" clip-rule="evenodd" d="M174.805 177.609C174.579 196.531 174.743 222.006 174.214 223.186C173.687 224.366 141.362 250.064 141.362 250.064L145.657 257.365C145.657 257.365 184.034 232.629 185.996 229.333C187.958 226.038 197.815 195.712 202.944 177.609H174.805Z" fill="#2B44FF"/>
<path fill-rule="evenodd" clip-rule="evenodd" d="M133.805 254.977L141.06 249.458L146.914 256.431C147.589 264.316 152.138 274.117 152.138 274.117L150.809 275.232L140.216 262.614L137.257 257.74L136.593 258.297L133.805 254.977Z" fill="#191847"/>
<path fill-rule="evenodd" clip-rule="evenodd" d="M214.653 281.205L215.087 272.102H224.194C230.671 276.653 241.107 279.471 241.107 279.471V281.205H224.627L218.99 280.338V281.205H214.653Z" fill="#191847"/>
<path fill-rule="evenodd" clip-rule="evenodd" d="M230.56 182.219L216.726 172.066L213.668 179.621L227.367 185.299C231.241 189.848 233.408 191.744 233.866 190.988C234.253 190.35 233.951 189.753 233.673 189.203C233.456 188.775 233.253 188.375 233.402 188.007C233.742 187.166 236.345 187.255 238.811 187.444C241.277 187.634 240.558 186.537 239.964 185.996C237.446 184.49 234.312 183.231 230.56 182.219ZM158.014 200.109C159.285 197.532 163.613 172.416 163.613 172.416L172.676 172.452C172.676 172.452 164.282 199.534 163.613 201.191C162.744 203.344 164.22 206.471 165.221 208.592C165.376 208.92 165.519 209.224 165.641 209.497C164.252 210.118 163.585 209.367 162.882 208.576C162.087 207.682 161.246 206.736 159.268 207.656C158.503 208.011 157.779 208.432 157.072 208.842C154.631 210.261 152.388 211.564 149.337 209.682C148.853 209.384 148.323 208.261 149.604 207.383C152.795 205.196 157.393 201.369 158.014 200.109Z" fill="#B28B67"/>
<path fill-rule="evenodd" clip-rule="evenodd" d="M189.368 134.408L193.118 133.765C207.031 145.778 212.746 168.857 229.801 181.083L225.696 186.169C196.109 182.507 188.776 154.356 189.368 134.408Z" fill="#E87613"/>
<path fill-rule="evenodd" clip-rule="evenodd" d="M173.02 181.51C173.02 181.51 195.575 181.51 206.201 181.51C207.717 181.51 207.432 179.322 207.212 178.218C204.683 165.474 194.809 151.737 194.809 133.596L185.237 132.096C177.321 144.822 174.584 160.489 173.02 181.51Z" fill="#DDE3E9"/>
<path fill-rule="evenodd" clip-rule="evenodd" d="M169.289 190.613C167.798 194.193 166.336 197.316 164.958 199.715H157.842C157.076 174.973 166.448 155.935 174.291 144.455C172.55 144.331 170.978 143.603 169.984 141.81C166.486 135.502 167.75 132.028 171.488 130.886C173.544 130.258 175.477 130.687 177.792 131.2C179.686 131.62 181.834 132.096 184.514 132.096C184.515 132.096 184.516 132.096 184.517 132.096C184.777 132.096 185.013 132.114 185.227 132.147L188.403 132.328C188.403 132.328 201.298 176.008 195.516 190.613H169.289Z" fill="#FF9B21"/>
<path fill-rule="evenodd" clip-rule="evenodd" d="M169.289 190.613C171.246 185.916 173.252 180.433 175.183 174.772C175.902 181.007 177.099 187.269 179.092 190.613H169.289Z" fill="black" fill-opacity="0.1"/>
<defs>
<linearGradient id="paint0_linear" x1="159.827" y1="55.0131" x2="159.827" y2="169.254" gradientUnits="userSpaceOnUse">
<stop offset="0.307292" stop-color="#4868F8"/>
<stop offset="1" stop-color="#2F3676" stop-opacity="0"/>
</linearGradient>
</defs>
</svg>
