<svg width="309" height="349" viewBox="0 0 309 349" fill="none" xmlns="http://www.w3.org/2000/svg">
<g clip-path="url(#clip0)">
<path d="M256.665 112.128C240.371 48.1167 184.072 1.90972 117.988 0.0564059C83.0517 -0.923388 46.2889 10.6527 19.5228 51.1618C-28.3244 123.576 22.4631 173.617 57.8708 197.395C74.9771 208.906 90.3907 222.747 103.665 238.517C127.582 266.872 173.592 302.106 228.389 246.899C268.105 206.884 267.518 154.765 256.665 112.128Z" fill="#F2F2F2"/>
<path d="M222.386 96.049H220.748V51.0463C220.748 47.6259 220.076 44.2389 218.77 41.0788C217.464 37.9187 215.55 35.0474 213.137 32.6288C210.725 30.2101 207.86 28.2916 204.708 26.9826C201.556 25.6737 198.177 25 194.765 25H99.653C96.2409 25 92.8622 25.6737 89.7098 26.9826C86.5574 28.2916 83.6931 30.2101 81.2804 32.6288C78.8676 35.0474 76.9538 37.9187 75.648 41.0788C74.3422 44.2389 73.6702 47.6259 73.6702 51.0463V297.934C73.6702 301.355 74.3422 304.742 75.648 307.902C76.9538 311.062 78.8676 313.933 81.2804 316.352C83.6931 318.77 86.5574 320.689 89.7098 321.998C92.8622 323.307 96.2409 323.981 99.6531 323.981H194.765C198.177 323.981 201.556 323.307 204.708 321.998C207.86 320.689 210.725 318.77 213.137 316.352C215.55 313.933 217.464 311.062 218.77 307.902C220.076 304.742 220.748 301.355 220.748 297.934V128.083H222.386V96.049Z" fill="#3F3D56"/>
<path d="M305.822 311.705H5.10229V312.545H305.822V311.705Z" fill="#3F3D56"/>
<path opacity="0.2" d="M215.218 51.2293V297.754C215.22 300.309 214.72 302.84 213.745 305.201C212.771 307.562 211.342 309.707 209.539 311.514C207.737 313.321 205.597 314.753 203.242 315.73C200.887 316.707 198.362 317.208 195.813 317.206H100.245C97.6962 317.208 95.1721 316.706 92.8171 315.729C90.462 314.752 88.3222 313.319 86.52 311.513C84.7177 309.706 83.2885 307.561 82.314 305.2C81.3395 302.839 80.8388 300.309 80.8406 297.754V51.2293C80.8388 48.6744 81.3395 46.1441 82.314 43.7833C83.2885 41.4225 84.7177 39.2774 86.52 37.4708C88.3222 35.6642 90.462 34.2314 92.8171 33.2545C95.1721 32.2776 97.6962 31.7757 100.245 31.7775H111.838C111.267 33.1807 111.049 34.7031 111.204 36.2105C111.358 37.718 111.88 39.1643 112.723 40.422C113.566 41.6797 114.705 42.7101 116.039 43.4226C117.374 44.135 118.862 44.5076 120.374 44.5075H174.864C176.375 44.5076 177.864 44.135 179.198 43.4226C180.532 42.7101 181.671 41.6797 182.514 40.422C183.358 39.1643 183.88 37.718 184.034 36.2105C184.188 34.7031 183.97 33.1807 183.399 31.7775H195.813C198.362 31.7752 200.887 32.2768 203.242 33.2535C205.597 34.2303 207.737 35.663 209.539 37.4697C211.342 39.2764 212.771 41.4217 213.745 43.7827C214.72 46.1438 215.22 48.6742 215.218 51.2293Z" fill="black"/>
<path d="M34.9724 312.5L34.5229 312.332C34.4241 312.294 24.5931 308.518 19.9878 299.957C15.3823 291.395 17.6374 281.087 17.6607 280.984L17.7669 280.514L18.2162 280.683C18.315 280.72 28.1458 284.496 32.7513 293.058C37.3568 301.62 35.1017 311.928 35.0784 312.031L34.9724 312.5ZM20.7253 299.558C24.6189 306.797 32.3877 310.508 34.356 311.355C34.7303 309.24 35.9039 300.688 32.0138 293.456C28.1241 286.225 20.3523 282.509 18.3831 281.66C18.0086 283.776 16.8354 292.327 20.7253 299.558Z" fill="#3F3D56"/>
<path d="M23.5074 296.954C31.7837 301.945 34.9711 311.86 34.9711 311.86C34.9711 311.86 24.7401 313.681 16.4638 308.69C8.18747 303.698 5 293.784 5 293.784C5 293.784 15.2311 291.962 23.5074 296.954Z" fill="#FFD600"/>
<path d="M104.953 31.7775V317.206H100.245C99.0137 317.208 97.7851 317.091 96.576 316.858V32.126C97.7851 31.8923 99.0137 31.7756 100.245 31.7775L104.953 31.7775Z" fill="#3F3D56"/>
<path d="M150.186 44.5075H141.81V317.206H150.186V44.5075Z" fill="#3F3D56"/>
<path d="M202.54 32.9783V316.005C200.387 316.802 198.109 317.209 195.813 317.206H194.163V31.7775H195.813C198.109 31.7746 200.387 32.1812 202.54 32.9783Z" fill="#3F3D56"/>
<path d="M215.218 79.3049H80.8406V87.7019H215.218V79.3049Z" fill="#3F3D56"/>
<path d="M215.218 174.611H80.8406V183.008H215.218V174.611Z" fill="#3F3D56"/>
<path d="M210.916 221.635H143.485V230.032H210.916V221.635Z" fill="#3F3D56"/>
<path d="M215.218 114.992H141.81V123.389H215.218V114.992Z" fill="#3F3D56"/>
<path d="M147.862 87.1395L146.89 87.7021L141.81 90.641L104.953 111.974L96.5761 116.823L80.8407 125.93V116.231L96.5761 107.124L104.953 102.279L130.137 87.7021L141.81 80.9466L143.673 79.8676L147.862 87.1395Z" fill="#3F3D56"/>
<path d="M215.218 266.559H80.8406V274.956H215.218V266.559Z" fill="#3F3D56"/>
<path d="M244.423 115.412C244.423 142.078 196.257 201.482 196.257 201.482C196.257 201.482 148.092 142.078 148.092 115.412C148.092 102.607 153.167 90.3257 162.199 81.2709C171.232 72.2161 183.483 67.1291 196.257 67.1291C209.032 67.1291 221.283 72.2161 230.315 81.2709C239.348 90.3257 244.423 102.607 244.423 115.412Z" fill="#FFD600"/>
<path opacity="0.2" d="M196.257 141.863C211.987 141.863 224.738 129.081 224.738 113.313C224.738 97.5452 211.987 84.7629 196.257 84.7629C180.528 84.7629 167.777 97.5452 167.777 113.313C167.777 129.081 180.528 141.863 196.257 141.863Z" fill="black"/>
<path d="M195.321 124.583C201.181 124.583 205.931 119.821 205.931 113.947C205.931 108.073 201.181 103.311 195.321 103.311C189.461 103.311 184.711 108.073 184.711 113.947C184.711 119.821 189.461 124.583 195.321 124.583Z" fill="#FFD600"/>
<path d="M211.886 144.802C212.329 142.493 212.258 140.115 211.678 137.837C211.098 135.559 210.023 133.438 208.53 131.625C207.036 129.813 205.162 128.353 203.04 127.351C200.919 126.349 198.603 125.83 196.257 125.83C193.912 125.83 191.596 126.349 189.474 127.351C187.353 128.353 185.478 129.813 183.985 131.625C182.492 133.438 181.417 135.559 180.837 137.837C180.256 140.115 180.186 142.493 180.629 144.802H211.886Z" fill="#FFD600"/>
<path d="M246.45 76.5522C246.45 76.5522 238.883 73.8429 234.018 84.6799C229.153 95.5168 221.586 107.437 221.586 107.437L225.91 108.521C225.91 108.521 226.991 100.935 229.694 99.8516L228.613 109.605C228.613 109.605 261.044 120.984 275.638 108.521L275.098 104.728C275.098 104.728 277.26 105.27 277.26 108.521L278.882 106.896C278.882 106.896 277.26 103.645 272.395 99.3098C269.202 96.4646 268.105 91.0517 267.728 87.6675C267.445 84.8416 266.318 82.1673 264.492 79.9953C261.259 76.2394 255.369 72.2475 246.45 76.5522Z" fill="#2F2E41"/>
<path d="M292.379 137.874C292.379 137.874 306.619 150.05 308.713 157.188C310.807 164.325 300.755 165.165 300.755 165.165L278.976 167.264C278.976 167.264 278.557 177.34 274.788 178.6C271.018 179.86 274.023 161.937 274.023 161.937L295.31 155.928L285.677 145.851L292.379 137.874Z" fill="#FBBEBE"/>
<path d="M192.068 348.104C189.619 348.104 187.634 346.118 187.634 343.668C187.634 341.218 189.619 339.232 192.068 339.232C194.517 339.232 196.502 341.218 196.502 343.668C196.502 346.118 194.517 348.104 192.068 348.104Z" fill="#3F3D56"/>
<path d="M191.463 251.517L203.153 220.464C203.153 220.464 201.339 214.617 206.176 215.02C211.013 215.423 223.912 219.859 223.912 219.859C223.912 219.859 228.346 220.263 222.3 226.514L211.819 259.381L208.393 257.768L219.68 225.102C219.68 225.102 220.284 222.884 218.067 222.279C215.85 221.674 207.385 218.045 206.579 220.263C205.773 222.481 195.293 254.34 195.293 254.34L191.463 251.517Z" fill="#3F3D56"/>
<path d="M222.904 272.892L200.331 340.442C198.505 341.653 196.524 342.612 194.44 343.291C192.557 343.939 190.615 344.403 188.642 344.676C187.907 344.734 187.168 344.676 186.451 344.503C174.844 342.184 135.031 320.883 135.031 320.883C135.031 320.883 155.387 257.365 158.813 249.703C162.239 242.04 169.898 244.863 169.898 244.863C169.898 244.863 208.585 255.314 214.137 257.256C214.252 257.296 214.353 257.333 214.44 257.365C216.885 258.248 218.997 259.867 220.484 262.001L220.486 262.003C226.129 265.431 222.904 272.892 222.904 272.892Z" fill="#6C63FF"/>
<path opacity="0.2" d="M206.701 254.809L206.592 255.197C204.845 254.708 203.356 258.607 203.342 258.646L178.552 327.403L178.173 327.267L181.316 318.548L147.554 303.628L144.895 311.27L144.515 311.137L166.692 247.396L166.704 247.377C166.783 247.252 168.652 244.329 170.871 244.917L170.768 245.307C168.915 244.814 167.215 247.332 167.057 247.574L162.363 261.065L197.856 272.673L202.963 258.507C203.03 258.329 204.598 254.22 206.701 254.809ZM162.231 261.446L158.773 271.384L193.714 284.16L197.719 273.052L162.231 261.446ZM189.589 295.603L193.578 284.54L158.64 271.765L155.207 281.632L189.589 295.603ZM155.075 282.013L151.311 292.83L185.634 306.572L189.452 295.983L155.075 282.013ZM181.454 318.168L185.498 306.951L151.178 293.211L147.687 303.246L181.454 318.168Z" fill="black"/>
<path opacity="0.2" d="M220.486 270.472C218.47 273.698 195.897 341.249 195.897 341.249C195.479 341.975 194.991 342.659 194.44 343.291C192.557 343.939 190.615 344.403 188.642 344.677C187.907 344.734 187.168 344.676 186.451 344.503C187.838 344.003 190.935 342.384 192.471 337.619C194.487 331.368 216.656 265.431 216.656 265.431C216.656 265.431 215.963 260.458 214.137 257.256C214.252 257.296 214.353 257.333 214.439 257.365C216.885 258.248 218.997 259.867 220.484 262.001L220.486 262.003C220.486 262.003 222.501 267.246 220.486 270.472Z" fill="black"/>
<path d="M216.455 285.393L214.238 292.249C214.238 292.249 216.052 305.759 206.579 314.632L204.564 321.487L206.646 321.544L208.846 314.962C208.846 314.962 216.152 306.144 216.203 292.946L218.067 285.393H216.455Z" fill="#3F3D56"/>
<path d="M178.464 348.205C176.015 348.205 174.03 346.219 174.03 343.769C174.03 341.319 176.015 339.333 178.464 339.333C180.912 339.333 182.898 341.319 182.898 343.769C182.898 346.219 180.912 348.205 178.464 348.205Z" fill="#3F3D56"/>
<path d="M135.434 329.553C132.985 329.553 131 327.567 131 325.117C131 322.667 132.985 320.681 135.434 320.681C137.883 320.681 139.868 322.667 139.868 325.117C139.868 327.567 137.883 329.553 135.434 329.553Z" fill="#3F3D56"/>
<path d="M225.785 150.47L224.11 172.722L214.895 210.509C214.895 210.509 206.519 227.723 213.639 228.143C220.759 228.562 220.34 211.768 220.34 211.768L233.743 176.081L234.999 151.729L225.785 150.47Z" fill="#FBBEBE"/>
<path d="M233.324 311.693V328.068L243.376 325.549L240.444 310.434L233.324 311.693Z" fill="#FBBEBE"/>
<path d="M286.934 311.693V328.068L296.986 325.549L294.054 310.434L286.934 311.693Z" fill="#FBBEBE"/>
<path d="M249.239 111.424C256.873 111.424 263.061 105.22 263.061 97.5685C263.061 89.9165 256.873 83.7133 249.239 83.7133C241.606 83.7133 235.418 89.9165 235.418 97.5685C235.418 105.22 241.606 111.424 249.239 111.424Z" fill="#FBBEBE"/>
<path d="M242.957 104.286C242.957 104.286 247.983 122.34 240.025 126.958C232.067 131.577 260.129 134.935 267.668 121.08C267.668 121.08 254.265 116.462 258.035 104.286H242.957Z" fill="#FBBEBE"/>
<path d="M233.324 129.057L230.811 128.218C230.811 128.218 225.785 130.317 225.785 134.096C225.785 137.874 224.947 152.989 224.947 152.989L236.256 154.249L233.324 129.057Z" fill="#F2F2F2"/>
<path d="M234.999 173.96C234.999 173.96 221.178 191.615 221.178 213.028C221.178 234.44 224.528 312.113 224.528 312.113C224.528 312.113 237.093 317.991 244.632 310.854L251.333 222.685L277.72 313.793C277.72 313.793 290.285 316.312 296.148 312.113L284.84 253.334C284.84 253.334 284.421 183.638 271.856 178.6C259.291 173.562 234.999 173.96 234.999 173.96Z" fill="#2F3676"/>
<path d="M244.213 323.029C244.213 323.029 233.324 317.151 232.486 325.129C231.648 333.106 231.23 338.144 231.23 338.144C231.23 338.144 229.973 347.801 241.7 345.701C253.427 343.602 249.239 337.724 249.239 337.724C249.239 337.724 245.051 331.007 245.051 329.327C245.051 327.648 244.213 323.029 244.213 323.029Z" fill="#2F2E41"/>
<path d="M285.862 322.838C285.862 322.838 295.773 315.421 297.77 323.188C299.767 330.955 300.92 335.877 300.92 335.877C300.92 335.877 303.577 345.244 291.669 344.894C279.762 344.544 283.044 338.113 283.044 338.113C283.044 338.113 286.202 330.852 285.956 329.191C285.71 327.53 285.862 322.838 285.862 322.838Z" fill="#2F2E41"/>
<path d="M273.531 123.179C273.531 123.179 278.976 120.24 284.421 126.538L295.311 139.134L286.934 148.371L271.018 138.714L273.531 123.179Z" fill="#F2F2F2"/>
<path d="M234.304 97.6563C239.197 94.1066 243.158 90.0181 245.778 85.1546C245.778 85.1546 254.757 95.156 260.244 95.656C265.732 96.1561 260.743 83.6544 260.743 83.6544L250.766 81.1541L241.288 82.1542L233.805 87.1549L234.304 97.6563Z" fill="#2F2E41"/>
<path d="M265.574 120.241C265.574 120.241 259.712 129.53 242.12 125.095L232.138 127.851L230.811 128.218C230.811 128.218 232.067 153.409 235.418 158.027C238.769 162.646 237.931 165.165 237.093 165.585C236.256 166.004 234.161 165.165 235.418 167.264C236.674 169.363 238.35 168.104 236.674 169.363C234.999 170.623 234.161 175.241 234.161 175.241L273.531 180.279C273.531 180.279 272.275 163.905 275.626 155.508C278.976 147.111 279.814 143.752 279.814 143.752L277.301 122.76L265.574 120.241Z" fill="#F2F2F2"/>
<path d="M200.446 236.33C207.616 236.33 213.429 230.503 213.429 223.314C213.429 216.126 207.616 210.299 200.446 210.299C193.275 210.299 187.462 216.126 187.462 223.314C187.462 230.503 193.275 236.33 200.446 236.33Z" fill="#FFD600"/>
</g>
<defs>
<clipPath id="clip0">
<rect width="309" height="349" fill="white"/>
</clipPath>
</defs>
</svg>
