<svg width="296" height="302" viewBox="0 0 296 302" fill="none" xmlns="http://www.w3.org/2000/svg">
<path d="M195.552 121.771C195.276 121.771 195.012 121.881 194.817 122.076C194.622 122.271 194.513 122.535 194.512 122.811V194.219C194.513 194.495 194.622 194.759 194.817 194.954C195.012 195.149 195.276 195.259 195.552 195.259H294.961C295.236 195.259 295.5 195.149 295.695 194.954C295.89 194.759 296 194.495 296 194.219V122.811C296 122.535 295.89 122.271 295.695 122.076C295.5 121.881 295.236 121.771 294.961 121.771H195.552Z" fill="#E6E6E6"/>
<path d="M289.471 128.158V178.906C289.471 179.244 289.336 179.569 289.097 179.809C288.858 180.048 288.534 180.182 288.195 180.182H202.113C202.052 180.183 201.992 180.178 201.933 180.167C201.629 180.124 201.351 179.973 201.15 179.741C200.949 179.509 200.838 179.213 200.837 178.906V128.158C200.837 127.819 200.972 127.494 201.211 127.255C201.45 127.016 201.774 126.881 202.113 126.881H288.195C288.534 126.881 288.858 127.016 289.097 127.255C289.336 127.494 289.471 127.819 289.471 128.158Z" fill="white"/>
<path d="M271.629 150.105C274.183 150.105 276.253 148.033 276.253 145.477C276.253 142.921 274.183 140.849 271.629 140.849C269.075 140.849 267.004 142.921 267.004 145.477C267.004 148.033 269.075 150.105 271.629 150.105Z" fill="#FF6584"/>
<path d="M197.483 125.863C198.325 125.863 199.008 125.18 199.008 124.337C199.008 123.494 198.325 122.811 197.483 122.811C196.641 122.811 195.958 123.494 195.958 124.337C195.958 125.18 196.641 125.863 197.483 125.863Z" fill="#3F3D56"/>
<path d="M292.826 125.863C293.668 125.863 294.351 125.18 294.351 124.337C294.351 123.494 293.668 122.811 292.826 122.811C291.984 122.811 291.301 123.494 291.301 124.337C291.301 125.18 291.984 125.863 292.826 125.863Z" fill="#3F3D56"/>
<path d="M197.483 194.219C198.325 194.219 199.008 193.536 199.008 192.693C199.008 191.851 198.325 191.168 197.483 191.168C196.641 191.168 195.958 191.851 195.958 192.693C195.958 193.536 196.641 194.219 197.483 194.219Z" fill="#3F3D56"/>
<path d="M292.826 194.219C293.668 194.219 294.351 193.536 294.351 192.693C294.351 191.851 293.668 191.168 292.826 191.168C291.984 191.168 291.301 191.851 291.301 192.693C291.301 193.536 291.984 194.219 292.826 194.219Z" fill="#3F3D56"/>
<path d="M229.199 163.645C232.263 163.645 234.747 161.159 234.747 158.092C234.747 155.026 232.263 152.54 229.199 152.54C226.134 152.54 223.65 155.026 223.65 158.092C223.65 161.159 226.134 163.645 229.199 163.645Z" fill="#6C63FF"/>
<path d="M229.733 174.817H228.597L229.115 157.256L229.733 174.817Z" fill="#3F3D56"/>
<path d="M229.215 160.584L230.435 158.895L229.199 161.002L229.065 160.768L229.215 160.584Z" fill="#3F3D56"/>
<path d="M229.082 162.29L227.862 160.601L229.098 162.708L229.232 162.474L229.082 162.29Z" fill="#3F3D56"/>
<path d="M280.096 163.645C283.16 163.645 285.644 161.159 285.644 158.092C285.644 155.026 283.16 152.54 280.096 152.54C277.031 152.54 274.547 155.026 274.547 158.092C274.547 161.159 277.031 163.645 280.096 163.645Z" fill="#6C63FF"/>
<path d="M280.63 174.817H279.494L280.012 157.256L280.63 174.817Z" fill="#3F3D56"/>
<path d="M280.112 160.584L281.332 158.895L280.096 161.002L279.962 160.768L280.112 160.584Z" fill="#3F3D56"/>
<path d="M279.979 162.29L278.759 160.601L279.995 162.708L280.129 162.474L279.979 162.29Z" fill="#3F3D56"/>
<path d="M245.272 161.449C249.797 161.449 253.466 157.778 253.466 153.248C253.466 148.719 249.797 145.048 245.272 145.048C240.746 145.048 237.077 148.719 237.077 153.248C237.077 157.778 240.746 161.449 245.272 161.449Z" fill="#6C63FF"/>
<path d="M246.061 177.949H244.383L245.148 152.013L246.061 177.949Z" fill="#3F3D56"/>
<path d="M245.296 156.929L247.098 154.434L245.272 157.546L245.074 157.201L245.296 156.929Z" fill="#3F3D56"/>
<path d="M245.099 159.449L243.297 156.953L245.123 160.066L245.321 159.72L245.099 159.449Z" fill="#3F3D56"/>
<path d="M265.256 158.317C269.781 158.317 273.45 154.645 273.45 150.116C273.45 145.587 269.781 141.915 265.256 141.915C260.73 141.915 257.061 145.587 257.061 150.116C257.061 154.645 260.73 158.317 265.256 158.317Z" fill="#6C63FF"/>
<path d="M266.045 174.817H264.367L265.132 148.881L266.045 174.817Z" fill="#3F3D56"/>
<path d="M265.281 153.796L267.082 151.301L265.256 154.414L265.058 154.068L265.281 153.796Z" fill="#3F3D56"/>
<path d="M265.083 156.316L263.281 153.821L265.108 156.934L265.305 156.588L265.083 156.316Z" fill="#3F3D56"/>
<path d="M213.422 158.317C217.948 158.317 221.617 154.645 221.617 150.116C221.617 145.587 217.948 141.915 213.422 141.915C208.896 141.915 205.228 145.587 205.228 150.116C205.228 154.645 208.896 158.317 213.422 158.317Z" fill="#6C63FF"/>
<path d="M214.212 174.817H212.533L213.299 148.881L214.212 174.817Z" fill="#3F3D56"/>
<path d="M213.447 153.796L215.248 151.301L213.422 154.414L213.224 154.068L213.447 153.796Z" fill="#3F3D56"/>
<path d="M213.25 156.316L211.448 153.821L213.274 156.934L213.471 156.588L213.25 156.316Z" fill="#3F3D56"/>
<path d="M245.729 180.182H202.113C202.052 180.183 201.992 180.178 201.933 180.167C201.629 180.124 201.351 179.973 201.15 179.741C200.949 179.509 200.838 179.213 200.837 178.906V168.008C204.941 167.324 209.096 166.986 213.257 166.998C228.74 166.998 241.691 171.439 244.939 177.383C245.429 178.236 245.7 179.198 245.729 180.182Z" fill="#3F3D56"/>
<path d="M289.471 176.435V178.906C289.471 179.244 289.336 179.569 289.097 179.809C288.858 180.048 288.533 180.182 288.195 180.182H239.938C241.49 179.057 243.168 178.118 244.939 177.383C250.851 174.845 259.189 173.263 268.427 173.263C276.457 173.263 283.801 174.454 289.471 176.435Z" fill="#3F3D56"/>
<path d="M250.862 0C250.692 0.000234994 250.525 0.0422577 250.375 0.122367L162.61 46.8417C162.367 46.9716 162.185 47.1927 162.105 47.4564C162.024 47.7201 162.052 48.0049 162.181 48.2485L195.69 111.292C195.82 111.536 196.041 111.718 196.305 111.798C196.568 111.879 196.853 111.852 197.096 111.722L284.861 65.0029C285.104 64.8731 285.286 64.6521 285.366 64.3884C285.447 64.1246 285.42 63.8397 285.29 63.5961L251.781 0.552372C251.717 0.431491 251.63 0.32448 251.524 0.237538C251.419 0.150596 251.297 0.0854536 251.167 0.0458848C251.068 0.0155741 250.965 0.000110655 250.862 0Z" fill="#E6E6E6"/>
<path d="M248.526 8.34054L272.34 53.1429C272.419 53.291 272.468 53.4532 272.484 53.6203C272.5 53.7873 272.483 53.9558 272.434 54.1163C272.385 54.2768 272.305 54.426 272.198 54.5555C272.092 54.685 271.96 54.7921 271.812 54.8709L195.814 95.3266C195.76 95.3558 195.704 95.3804 195.646 95.4C195.357 95.5041 195.041 95.5006 194.755 95.3901C194.469 95.2797 194.232 95.0697 194.088 94.7986L170.274 49.9962C170.195 49.8481 170.146 49.6859 170.13 49.5189C170.114 49.3519 170.131 49.1833 170.18 49.0229C170.229 48.8624 170.309 48.7132 170.415 48.5837C170.522 48.4542 170.653 48.347 170.801 48.2683L246.799 7.81258C246.947 7.73373 247.11 7.68484 247.276 7.6687C247.443 7.65256 247.612 7.66949 247.772 7.71852C247.932 7.76755 248.082 7.84772 248.211 7.95445C248.34 8.06118 248.447 8.19238 248.526 8.34054Z" fill="white"/>
<path d="M197.731 66.622C203.916 66.622 208.931 61.6037 208.931 55.4134C208.931 49.223 203.916 44.2047 197.731 44.2047C191.545 44.2047 186.53 49.223 186.53 55.4134C186.53 61.6037 191.545 66.622 197.731 66.622Z" fill="#FF6584"/>
<path d="M244.948 69.4016L196.439 95.2243C196.379 95.2575 196.316 95.285 196.25 95.3065L198.054 43.3239C198.062 43.0016 198.156 42.6874 198.326 42.4133C198.495 42.1392 198.734 41.915 199.018 41.7636C199.303 41.6122 199.622 41.5391 199.944 41.5517C200.266 41.5643 200.579 41.6622 200.85 41.8353L230.434 60.3274L231.85 61.2118L244.948 69.4016Z" fill="#3F3D56"/>
<path opacity="0.2" d="M244.949 69.4017L228.386 78.2181L230.235 62.0718L230.367 60.9089L230.433 60.3274L231.85 61.2119L244.949 69.4017Z" fill="black"/>
<path d="M271.958 55.0237L230.002 77.3583L231.85 61.2118L231.983 60.049L234.391 39.0075C234.549 37.6284 236.186 36.676 237.472 37.1232C237.559 37.1542 237.643 37.1906 237.726 37.2324L271.958 55.0237Z" fill="#3F3D56"/>
<path d="M165.52 49.7254C166.362 49.7254 167.044 49.0422 167.044 48.1996C167.044 47.3569 166.362 46.6737 165.52 46.6737C164.677 46.6737 163.995 47.3569 163.995 48.1996C163.995 49.0422 164.677 49.7254 165.52 49.7254Z" fill="#3F3D56"/>
<path d="M249.695 4.91684C250.537 4.91684 251.219 4.23371 251.219 3.39103C251.219 2.54835 250.537 1.86522 249.695 1.86522C248.853 1.86522 248.17 2.54835 248.17 3.39103C248.17 4.23371 248.853 4.91684 249.695 4.91684Z" fill="#3F3D56"/>
<path d="M197.597 110.075C198.439 110.075 199.122 109.392 199.122 108.549C199.122 107.706 198.439 107.023 197.597 107.023C196.755 107.023 196.073 107.706 196.073 108.549C196.073 109.392 196.755 110.075 197.597 110.075Z" fill="#3F3D56"/>
<path d="M281.772 65.2664C282.614 65.2664 283.297 64.5833 283.297 63.7406C283.297 62.8979 282.614 62.2148 281.772 62.2148C280.93 62.2148 280.248 62.8979 280.248 63.7406C280.248 64.5833 280.93 65.2664 281.772 65.2664Z" fill="#3F3D56"/>
<path d="M272.113 301.965C272.379 302.035 272.663 301.997 272.901 301.859C273.139 301.721 273.313 301.493 273.384 301.227L291.728 232.219C291.799 231.952 291.761 231.668 291.623 231.43C291.484 231.191 291.257 231.017 290.991 230.946L194.923 205.371C194.656 205.301 194.373 205.339 194.134 205.477C193.896 205.615 193.722 205.843 193.651 206.109L175.308 275.117C175.273 275.249 175.264 275.387 175.282 275.523C175.3 275.658 175.344 275.789 175.413 275.907C175.481 276.025 175.573 276.128 175.681 276.211C175.789 276.294 175.913 276.355 176.045 276.39L272.113 301.965Z" fill="#E6E6E6"/>
<path d="M284.045 235.706L271.008 284.748C270.921 285.076 270.708 285.355 270.415 285.525C270.123 285.694 269.775 285.741 269.448 285.654L186.258 263.508C186.2 263.493 186.143 263.472 186.088 263.446C185.806 263.327 185.576 263.109 185.441 262.833C185.306 262.558 185.275 262.243 185.353 261.946L198.39 212.903C198.477 212.576 198.69 212.297 198.983 212.127C199.276 211.957 199.624 211.911 199.951 211.998L283.14 234.144C283.467 234.231 283.746 234.445 283.915 234.737C284.085 235.03 284.132 235.379 284.045 235.706Z" fill="white"/>
<path d="M272.86 277.782L271.008 284.749C270.921 285.076 270.708 285.355 270.415 285.525C270.123 285.694 269.775 285.741 269.448 285.654L186.258 263.508C186.2 263.493 186.143 263.472 186.088 263.446C185.806 263.327 185.576 263.109 185.441 262.833C185.306 262.558 185.275 262.243 185.353 261.946L187.205 254.979L272.86 277.782Z" fill="#3F3D56"/>
<path d="M236.103 272.454L222.868 268.931L222.466 270.444L235.701 273.967L236.103 272.454Z" fill="#CCCCCC"/>
<path d="M205.663 264.35L192.429 260.827L192.026 262.341L205.261 265.864L205.663 264.35Z" fill="#CCCCCC"/>
<path d="M266.543 280.557L253.308 277.034L252.906 278.548L266.14 282.071L266.543 280.557Z" fill="#CCCCCC"/>
<path d="M196.13 209.874C196.972 209.874 197.655 209.191 197.655 208.348C197.655 207.506 196.972 206.822 196.13 206.822C195.288 206.822 194.605 207.506 194.605 208.348C194.605 209.191 195.288 209.874 196.13 209.874Z" fill="#3F3D56"/>
<path d="M288.269 234.403C289.111 234.403 289.793 233.719 289.793 232.877C289.793 232.034 289.111 231.351 288.269 231.351C287.427 231.351 286.744 232.034 286.744 232.877C286.744 233.719 287.427 234.403 288.269 234.403Z" fill="#3F3D56"/>
<path d="M178.57 275.933C179.412 275.933 180.095 275.25 180.095 274.407C180.095 273.565 179.412 272.881 178.57 272.881C177.728 272.881 177.046 273.565 177.046 274.407C177.046 275.25 177.728 275.933 178.57 275.933Z" fill="#3F3D56"/>
<path d="M270.709 300.462C271.551 300.462 272.234 299.778 272.234 298.936C272.234 298.093 271.551 297.41 270.709 297.41C269.867 297.41 269.184 298.093 269.184 298.936C269.184 299.778 269.867 300.462 270.709 300.462Z" fill="#3F3D56"/>
<path d="M252.403 274.604L259.757 276.566L260.069 275.398L252.714 273.436L252.403 274.604Z" fill="#3F3D56"/>
<path d="M199.46 259.54L200.884 260.295L258.554 275.68L259.394 274.609C260.85 272.776 261.768 270.573 262.045 268.248C262.241 266.511 262.06 264.686 260.837 263.589L262.813 245.847L230.918 237.295L215.923 243.973C215.923 243.973 210.127 242.318 205.915 245.418C204.384 246.58 203.238 248.176 202.627 249.999L201.957 252.016L199.46 259.54Z" fill="#6C63FF"/>
<path d="M212.204 270.002C216.274 270.002 219.574 266.7 219.574 262.627C219.574 258.553 216.274 255.251 212.204 255.251C208.134 255.251 204.834 258.553 204.834 262.627C204.834 266.7 208.134 270.002 212.204 270.002Z" fill="#3F3D56"/>
<path d="M212.204 266.508C214.346 266.508 216.083 264.77 216.083 262.627C216.083 260.483 214.346 258.745 212.204 258.745C210.062 258.745 208.325 260.483 208.325 262.627C208.325 264.77 210.062 266.508 212.204 266.508Z" fill="#CCCCCC"/>
<path d="M247.343 279.377C251.413 279.377 254.713 276.075 254.713 272.001C254.713 267.928 251.413 264.626 247.343 264.626C243.273 264.626 239.973 267.928 239.973 272.001C239.973 276.075 243.273 279.377 247.343 279.377Z" fill="#3F3D56"/>
<path d="M247.343 275.883C249.485 275.883 251.222 274.145 251.222 272.001C251.222 269.857 249.485 268.119 247.343 268.119C245.201 268.119 243.464 269.857 243.464 272.001C243.464 274.145 245.201 275.883 247.343 275.883Z" fill="#CCCCCC"/>
<path d="M221.138 244.114L238.364 248.708L240.468 249.268L244.018 250.216L244.087 249.957L244.92 246.833L245.855 243.325L243.493 242.696L241.39 242.133L237.666 241.139L235.562 240.579L231.262 239.432L221.138 244.114Z" fill="white"/>
<path d="M246.821 250.965L255.925 253.394L256.403 251.606L257.233 248.482L257.762 246.503L256.429 246.147L254.326 245.585L248.655 244.073L246.821 250.965Z" fill="white"/>
<path d="M240.891 257.268L242.058 257.579L242.65 255.36L241.482 255.048L240.891 257.268Z" fill="#3F3D56"/>
<path d="M224.966 248.513L225.278 247.345L223.06 246.753L222.748 247.922L224.966 248.513Z" fill="#3F3D56"/>
<path d="M224.323 247.641L224.195 247.607C223.548 247.434 222.996 247.011 222.66 246.431C222.325 245.851 222.233 245.162 222.406 244.514C222.578 243.867 223.001 243.314 223.58 242.978C224.16 242.642 224.849 242.551 225.496 242.723L225.624 242.758L224.323 247.641Z" fill="#3F3D56"/>
<path d="M201.957 252.016C202.814 252.347 203.761 252.365 204.63 252.066C205.499 251.767 206.235 251.171 206.708 250.382C207.181 249.594 207.361 248.664 207.216 247.755C207.071 246.847 206.61 246.019 205.915 245.418C204.384 246.58 203.238 248.176 202.627 249.999L201.957 252.016Z" fill="#3F3D56"/>
<path d="M241.39 242.133L244.087 249.957L244.92 246.833L243.493 242.696L241.39 242.133Z" fill="#F2F2F2"/>
<path d="M254.326 245.585L256.403 251.606L257.233 248.482L256.429 246.147L254.326 245.585Z" fill="#F2F2F2"/>
<path d="M235.562 240.579L238.364 248.708L240.468 249.268L237.666 241.139L235.562 240.579Z" fill="#F2F2F2"/>
<path d="M15.6578 121.511C18.251 121.511 20.3532 119.407 20.3532 116.812C20.3532 114.217 18.251 112.113 15.6578 112.113C13.0646 112.113 10.9624 114.217 10.9624 116.812C10.9624 119.407 13.0646 121.511 15.6578 121.511Z" fill="#FFD600"/>
<path opacity="0.2" d="M17.6397 112.557C18.4723 113.312 19.0065 114.34 19.1454 115.455C19.2842 116.571 19.0183 117.699 18.3961 118.635C17.7739 119.571 16.8367 120.252 15.755 120.555C14.6733 120.857 13.519 120.762 12.502 120.284C13.0017 120.74 13.5939 121.082 14.2382 121.288C14.8824 121.493 15.5633 121.557 16.2344 121.474C16.9054 121.391 17.5507 121.165 18.126 120.809C18.7013 120.454 19.1931 119.978 19.5676 119.415C19.9421 118.852 20.1906 118.214 20.2959 117.546C20.4013 116.877 20.361 116.194 20.1779 115.543C19.9948 114.892 19.6732 114.288 19.2351 113.772C18.797 113.257 18.2528 112.842 17.6397 112.557Z" fill="black"/>
<path d="M136.369 126.602C142.744 126.602 147.912 124.498 147.912 121.903C147.912 119.308 142.744 117.204 136.369 117.204C129.994 117.204 124.826 119.308 124.826 121.903C124.826 124.498 129.994 126.602 136.369 126.602Z" fill="#3F3D56"/>
<path opacity="0.2" d="M136.369 117.204C135.973 117.204 135.582 117.212 135.195 117.228C141.019 117.467 145.564 119.469 145.564 121.903C145.564 124.337 141.019 126.338 135.195 126.578C135.581 126.594 135.973 126.602 136.369 126.602C142.744 126.602 147.912 124.498 147.912 121.903C147.912 119.308 142.744 117.204 136.369 117.204Z" fill="black"/>
<path d="M151.434 121.903H93.5235V115.638C93.5235 115.326 93.3998 115.027 93.1797 114.807C92.9596 114.587 92.661 114.463 92.3497 114.463H60.2644C59.953 114.463 59.6545 114.587 59.4343 114.807C59.2142 115.027 59.0905 115.326 59.0905 115.638V121.903H25.4401V117.987C25.4401 117.676 25.3164 117.377 25.0963 117.156C24.8761 116.936 24.5775 116.812 24.2662 116.812H7.04971C6.73838 116.812 6.43981 116.936 6.21967 117.156C5.99953 117.377 5.87586 117.676 5.87586 117.987V121.903H1.18045C1.02623 121.903 0.873502 121.933 0.73099 121.992C0.588479 122.051 0.458995 122.137 0.349952 122.246C0.240908 122.356 0.154448 122.485 0.0955297 122.628C0.0366111 122.77 0.00638682 122.923 0.00659284 123.078V200.218C0.00638682 200.372 0.0366111 200.525 0.0955297 200.668C0.154448 200.81 0.240908 200.94 0.349952 201.049C0.458995 201.158 0.588479 201.245 0.73099 201.304C0.873502 201.363 1.02623 201.393 1.18045 201.393H151.434C151.588 201.393 151.741 201.363 151.883 201.304C152.026 201.245 152.155 201.158 152.264 201.049C152.373 200.94 152.46 200.81 152.519 200.668C152.577 200.525 152.608 200.372 152.607 200.218V123.078C152.608 122.923 152.577 122.77 152.519 122.628C152.46 122.485 152.373 122.356 152.264 122.246C152.155 122.137 152.026 122.051 151.883 121.992C151.741 121.933 151.588 121.903 151.434 121.903Z" fill="#3F3D56"/>
<path opacity="0.2" d="M151.427 195.64H1.17385C1.01964 195.64 0.86691 195.61 0.724399 195.551C0.581887 195.492 0.452397 195.405 0.343354 195.296C0.234311 195.187 0.147857 195.057 0.088938 194.915C0.0300193 194.772 -0.00020498 194.619 1.04623e-06 194.465V199.947C-0.00020498 200.101 0.0300193 200.254 0.088938 200.397C0.147857 200.54 0.234311 200.669 0.343354 200.778C0.452397 200.887 0.581887 200.974 0.724399 201.033C0.86691 201.092 1.01964 201.122 1.17385 201.122H151.427C151.581 201.122 151.734 201.092 151.876 201.033C152.019 200.974 152.148 200.887 152.257 200.778C152.367 200.669 152.453 200.54 152.512 200.397C152.571 200.254 152.601 200.101 152.601 199.947V194.465C152.601 194.619 152.571 194.772 152.512 194.915C152.453 195.057 152.367 195.187 152.257 195.296C152.148 195.405 152.019 195.492 151.876 195.551C151.734 195.61 151.581 195.64 151.427 195.64Z" fill="black"/>
<path opacity="0.2" d="M152.607 157.928H0.0065918V172.808H152.607V157.928Z" fill="black"/>
<path opacity="0.2" d="M152.607 150.488H0.0065918V165.368H152.607V150.488Z" fill="black"/>
<path d="M152.607 154.012H0.0065918V168.892H152.607V154.012Z" fill="#FFD600"/>
<path d="M76.3069 191.212C92.7306 191.212 106.045 177.888 106.045 161.452C106.045 145.016 92.7306 131.692 76.3069 131.692C59.8833 131.692 46.5693 145.016 46.5693 161.452C46.5693 177.888 59.8833 191.212 76.3069 191.212Z" fill="#FFD600"/>
<path opacity="0.2" d="M99.2129 142.475C102.996 148.925 104.213 156.563 102.623 163.871C101.032 171.179 96.7507 177.619 90.63 181.91C84.5093 186.201 76.9984 188.029 69.5922 187.029C62.186 186.029 55.4276 182.275 50.6621 176.514C52.7404 180.058 55.5297 183.133 58.8543 185.545C62.1788 187.957 65.9666 189.654 69.9788 190.529C73.9911 191.404 78.1409 191.437 82.1668 190.628C86.1927 189.818 90.0074 188.183 93.3705 185.825C96.7337 183.467 99.5724 180.437 101.708 176.927C103.843 173.417 105.229 169.503 105.778 165.43C106.327 161.358 106.027 157.215 104.897 153.265C103.767 149.314 101.832 145.64 99.2129 142.475Z" fill="black"/>
<path d="M76.3068 183.599C88.5291 183.599 98.4371 173.683 98.4371 161.452C98.4371 149.221 88.5291 139.305 76.3068 139.305C64.0846 139.305 54.1765 149.221 54.1765 161.452C54.1765 173.683 64.0846 183.599 76.3068 183.599Z" fill="#3F3D56"/>
<path d="M93.5235 161.452C93.527 163.791 93.0516 166.106 92.1266 168.254C91.6312 169.412 91.0078 170.511 90.268 171.531C88.8097 173.556 86.9291 175.239 84.7565 176.465C82.5839 177.691 80.1711 178.429 77.6851 178.63C75.1991 178.831 72.6993 178.488 70.3586 177.626C68.0179 176.765 65.8922 175.404 64.1286 173.639C62.365 171.875 61.0057 169.747 60.1447 167.405C59.2836 165.062 58.9415 162.561 59.1418 160.073C59.3422 157.585 60.0803 155.17 61.3051 152.996C62.5299 150.822 64.2121 148.94 66.2353 147.481C67.2543 146.74 68.3528 146.116 69.5104 145.621C72.1294 144.495 74.9867 144.038 77.8259 144.29C80.6651 144.542 83.3973 145.495 85.7776 147.064C88.1578 148.633 90.1115 150.769 91.4634 153.281C92.8154 155.792 93.5232 158.6 93.5235 161.452Z" fill="white"/>
<path opacity="0.2" d="M93.3395 158.942C92.6976 154.561 90.3925 150.597 86.9038 147.874C88.4156 150.243 89.3253 152.946 89.5536 155.747C89.7819 158.549 89.3219 161.364 88.2137 163.946C87.7183 165.105 87.0948 166.204 86.3551 167.224C85.0005 169.104 83.2804 170.692 81.2978 171.891C79.3153 173.09 77.1112 173.877 74.8177 174.203C72.5242 174.529 70.1885 174.388 67.9506 173.789C65.7128 173.19 63.6189 172.145 61.7944 170.716C63.3043 173.088 65.3717 175.053 67.8158 176.441C70.2599 177.829 73.0064 178.596 75.8153 178.677C78.6242 178.757 81.4101 178.148 83.9294 176.902C86.4488 175.657 88.625 173.813 90.2679 171.531C91.0077 170.512 91.6311 169.412 92.1265 168.254C93.3842 165.322 93.8041 162.098 93.3395 158.942V158.942Z" fill="black"/>
</svg>
