<svg width="318" height="312" viewBox="0 0 318 312" fill="none" xmlns="http://www.w3.org/2000/svg">
<path d="M263.922 60.543C291.034 95.3052 300.813 143.016 290.674 185.749C280.535 228.483 250.485 266.125 216.358 274.516C182.231 282.907 144.018 262.05 115.402 240.834C86.7982 219.554 67.7234 197.978 61.8442 173.106C55.965 148.234 63.3447 120.122 79.8975 87.8123C96.4503 55.503 122.259 18.826 157.337 11.4598C192.426 4.02235 236.811 25.7808 263.922 60.543Z" fill="#F2F2F2"/>
<path fill-rule="evenodd" clip-rule="evenodd" d="M151.053 73.6558C149.33 67.8846 145.287 63.3672 141.088 59.2286C132.917 51.1713 128.521 46.1895 125.609 34.4031C123.896 27.4712 122.152 20.1256 116.719 15.0964C112.763 11.4341 105.955 8.35706 100.664 10.9796C92.5261 15.8594 90.3403 25.8736 91.1613 34.8407C92.1786 45.9547 97.3464 52.8077 107.275 56.9012C112.869 59.2068 116.588 62.2491 119.625 67.5499C122.054 71.7883 123.47 77.0961 126.523 80.9384C131.086 86.6829 136.797 89.2359 143.836 88.2819C137.243 76.0963 129.54 63.7958 120.249 53.5358C119.378 52.5043 114.249 48.5563 115.283 46.7983C116.423 44.8628 121.69 52.1336 121.652 52.0897C124.352 55.2033 126.851 58.5119 129.304 61.8524C129.298 61.8553 129.291 61.857 129.284 61.8605C131.81 65.2887 134.316 68.7667 136.774 72.2882C137.769 73.7781 138.736 75.2866 139.663 76.8334C141.022 79.1028 143.179 85.5439 145.404 86.9392C145.88 87.2373 146.32 87.4044 146.731 87.4728C148.249 89.9696 149.726 92.486 151.131 95.032C154.799 101.682 157.947 108.703 159.391 116.211C159.813 118.402 159.515 126.599 161.004 128.181C163.726 131.074 162.929 125.502 162.766 123.82C161.414 109.894 156.436 98.0287 149.21 86.3204C151.43 83.4073 151.75 75.9942 151.053 73.6558Z" fill="#D9E1FF"/>
<path fill-rule="evenodd" clip-rule="evenodd" d="M57.2328 80.7778C60.112 77.3916 67.0335 76.8169 71.2668 77.0435C76.5045 77.3239 81.8852 78.597 86.8686 80.136C95.0776 82.6706 103.055 87.2969 110.285 91.7747C111.156 92.3141 121.89 98.7575 120.941 99.8884C119.999 101.009 109.461 93.3548 107.113 92.0354C102.101 89.2199 97.5051 85.8897 91.9807 84.0298C86.2611 82.104 80.2119 81.3415 74.197 81.3941C73.4249 81.401 70.9071 80.8639 70.8527 82.004C70.7994 83.1187 74.9661 82.5371 75.7006 82.544C78.735 82.5718 81.7885 82.8568 84.7795 83.3817C90.3844 84.3652 95.6533 86.3459 100.454 89.3846C99.114 92.4933 95.9036 93.9265 92.5349 93.1484C89.6239 92.476 86.7864 90.8173 83.9356 90.338C81.9727 90.0079 80.0069 90.2044 78.1031 90.7566C73.0814 92.2129 70.1854 95.1973 64.664 93.1212C60.3362 91.4943 53.0974 85.6475 57.2328 80.7778Z" fill="#D9E1FF"/>
<path fill-rule="evenodd" clip-rule="evenodd" d="M45.1877 26.0298C38.8647 25.5614 31.8046 30.6869 28.7545 36.0208C26.2961 40.3213 26.7103 45.9684 28.2287 50.5372C29.246 53.596 31.4649 57.9571 35.1663 57.9996C39.7966 58.0528 40.0195 52.302 40.1094 48.9401C40.2285 44.4705 40.7904 40.5769 44.2953 37.5303C44.7277 37.1543 45.182 36.8022 45.6362 36.4502C46.0388 36.1378 46.4421 35.8253 46.8298 35.4962C46.8917 35.4436 46.9541 35.391 47.0166 35.3382C48.2561 34.2915 49.558 33.1921 49.7161 31.4668C49.9458 28.9664 48.5413 28.5165 46.3968 28.981C46.3275 28.9959 46.1396 29.0676 45.8842 29.1649C44.789 29.582 42.4521 30.4721 42.8943 29.4081C43.0604 29.0072 43.6686 28.6894 44.4362 28.4514C46.4214 28.2345 48.7899 27.9827 49.471 28.1331C56.8181 29.7528 59.6785 39.9798 60.4386 46.4775C60.5245 47.2132 60.5933 47.9515 60.6528 48.6909H62C61.9055 46.9544 61.7829 45.2208 61.4937 43.5037C60.4111 37.0675 57.0254 27.6145 49.5993 26.5698C49.3255 26.5309 48.3174 26.5243 47.0968 26.5963C46.5182 26.2714 45.8704 26.075 45.1877 26.0298Z" fill="#D9E1FF"/>
<path fill-rule="evenodd" clip-rule="evenodd" d="M171.324 64.0046C171.399 68.02 173.078 74.7335 173.153 79.6984C173.228 84.6633 169.792 89.8418 168.77 92.3223C167.749 94.8028 173.296 102.834 173.296 102.834L185.786 95.8472L185.26 73.9304C185.26 73.9304 171.253 59.9892 171.324 64.0046Z" fill="black"/>
<path fill-rule="evenodd" clip-rule="evenodd" d="M178.945 81.443C187.046 86.6849 176.57 106.529 171.866 110.101C167.163 113.673 154.522 105.069 154.348 100.65C154.173 96.2309 170.845 76.2052 178.945 81.443Z" fill="#FFC78E"/>
<path fill-rule="evenodd" clip-rule="evenodd" d="M34.3209 78.5867L17 187.921L71.829 196.593L81.9008 189.314L89.233 199.346L286.683 230.576L304 121.241L107.1 90.099L96.391 97.8252L88.5996 87.1438L34.3209 78.5867Z" fill="#FFD600"/>
<path d="M81.8177 189.844L96.4663 97.3861" stroke="#F3F3F3" stroke-width="4.41" stroke-linejoin="round"/>
<path fill-rule="evenodd" clip-rule="evenodd" d="M57.9406 145.627L66.1992 146.932L60.5219 182.778L52.2633 181.473L57.9406 145.627Z" fill="#F3F3F3"/>
<path fill-rule="evenodd" clip-rule="evenodd" d="M62.0066 119.979L70.2612 121.285L67.3632 139.582L59.1085 138.276L62.0066 119.979Z" fill="#F3F3F3"/>
<path fill-rule="evenodd" clip-rule="evenodd" d="M115.351 112.878L269.699 137.291L268.242 146.485L113.894 122.072L115.351 112.878Z" fill="#F3F3F3"/>
<path d="M113.89 136.069L238.573 155.79" stroke="#F3F3F3" stroke-width="4.41" stroke-linecap="round" stroke-linejoin="round"/>
<path d="M111.851 149.349L200.863 163.429" stroke="#F3F3F3" stroke-width="4.41" stroke-linecap="round" stroke-linejoin="round"/>
<path d="M110.279 162.484L250.719 184.697" stroke="#F3F3F3" stroke-width="4.41" stroke-linecap="round" stroke-linejoin="round"/>
<path fill-rule="evenodd" clip-rule="evenodd" d="M182.611 32.3203C197.355 32.3203 202.779 45.0707 203.008 53.3152C203.008 58.3513 201.559 63.2371 202.612 67.0547C202.533 76.5177 212.771 85.5257 212.771 100.179C212.771 126.289 192.45 123.006 181.986 123.386C171.522 123.765 180.066 99.1742 180.22 94.4388C180.374 89.7034 180.572 79.01 180.877 74.5871C181.182 70.1642 168.695 61.176 168.846 57.2832C168.996 53.3904 161.684 33.0086 182.611 32.3203Z" fill="black"/>
<path fill-rule="evenodd" clip-rule="evenodd" d="M252.041 278.302L258.708 282.82L264.742 276.043L258.728 270.018L252.041 278.302Z" fill="#E49D75"/>
<path fill-rule="evenodd" clip-rule="evenodd" d="M134.691 292.398L131.856 299.273L139.976 303.17L143.199 296.678L134.691 292.398Z" fill="#E49D75"/>
<path fill-rule="evenodd" clip-rule="evenodd" d="M207.898 143.209C211.421 146.564 213.243 198.595 212.744 209.027C215.385 214.894 259.461 270.101 259.461 270.101L252.105 279.35C252.105 279.35 191.979 233.46 188.76 228.222C185.541 222.984 151.414 173.454 207.898 143.209Z" fill="#5FC5D1"/>
<path fill-rule="evenodd" clip-rule="evenodd" d="M168.058 152.815C165.223 160.699 153.876 205.561 151.901 218.256C149.925 230.952 134.018 292.572 134.018 292.572L143.143 297.505C143.143 297.505 214.403 170.775 207.431 147.605C200.459 124.434 170.896 144.934 168.058 152.815Z" fill="#6BD5E1"/>
<path fill-rule="evenodd" clip-rule="evenodd" d="M166.953 53.9719C167.662 43.9393 174.606 36.2566 182.461 36.8104C190.316 37.3643 196.112 45.949 195.403 55.9816C194.694 66.0143 187.75 73.693 179.891 73.1431C172.033 72.5933 166.256 64.0046 166.953 53.9719Z" fill="#E49D75"/>
<path fill-rule="evenodd" clip-rule="evenodd" d="M183.486 78.7489C205.91 73.3687 213.437 133.739 208.979 147.905C204.988 158.148 177.52 161.902 166.72 156.739C162.575 153.456 152.713 86.131 183.486 78.7489Z" fill="#FFD98E"/>
<path fill-rule="evenodd" clip-rule="evenodd" d="M186.843 114.678C187.738 120.304 189.346 138.81 189.615 143.162C189.884 147.514 184.428 172.833 182.552 176.306C184.428 178.893 189.971 183.542 189.971 183.542C189.971 183.542 200.344 162.309 204.394 145.298C205.673 139.93 201.682 114.306 200.965 112.253C200.249 110.2 185.945 109.049 186.843 114.678Z" fill="#E49D75"/>
<path fill-rule="evenodd" clip-rule="evenodd" d="M140.918 301.983L136.73 312L109.107 301.137L110.897 296.5L131.702 297.782L140.918 301.983Z" fill="black"/>
<path fill-rule="evenodd" clip-rule="evenodd" d="M264.045 274.706L272.624 281.36L254.939 305.172L250.929 302.236L257.596 282.503L264.045 274.706Z" fill="black"/>
<path fill-rule="evenodd" clip-rule="evenodd" d="M174.21 37.3603C174.285 41.5577 176.91 52.6664 191.016 58.4265C199.802 62.0147 199.113 58.4265 199.113 58.4265L193.918 38.8795L186.127 34.3062C186.127 34.3062 174.135 33.1629 174.21 37.3603Z" fill="black"/>
<path fill-rule="evenodd" clip-rule="evenodd" d="M187.378 58.9012C187.378 58.1329 187.606 57.3818 188.033 56.7429C188.46 56.104 189.068 55.6061 189.778 55.3121C190.488 55.018 191.27 54.9411 192.024 55.091C192.778 55.2409 193.471 55.6109 194.015 56.1542C194.559 56.6975 194.929 57.3897 195.079 58.1433C195.229 58.8969 195.152 59.678 194.858 60.3879C194.563 61.0978 194.065 61.7045 193.426 62.1314C192.786 62.5583 192.035 62.7861 191.266 62.7861C190.235 62.7861 189.246 62.3768 188.517 61.6482C187.788 60.9197 187.378 59.9316 187.378 58.9012Z" fill="#E49D75"/>
<path fill-rule="evenodd" clip-rule="evenodd" d="M189.726 85.3477C199.275 83.9433 204.517 105.757 203.345 111.545C199.932 115.525 190.577 116.965 183.946 115.999C180.905 112.795 180.18 86.7482 189.726 85.3477Z" fill="#FFE4AD"/>
<path fill-rule="evenodd" clip-rule="evenodd" d="M178.613 64.7839H190.49V81.7199C188.657 83.3499 182.017 84.9916 178.613 81.5182V64.7839Z" fill="#E49D75"/>
<path d="M40.1728 170.438L39.5245 174.496L41.7157 175.637L41.3226 178.098L30.7576 172.124L31.1002 169.98L43.0049 167.567L42.6117 170.028L40.1728 170.438ZM37.7496 173.572L38.1982 170.764L33.768 171.505L37.7496 173.572ZM43.1725 166.518L31.9395 164.726L32.4917 161.27C32.6494 160.282 33.0141 159.436 33.5856 158.731C34.1528 158.02 34.8828 157.511 35.7756 157.205C36.6632 156.898 37.6291 156.828 38.6732 156.995L39.1901 157.077C40.2342 157.244 41.128 157.608 41.8716 158.17C42.6161 158.726 43.1496 159.431 43.4722 160.284C43.7948 161.137 43.8801 162.055 43.7284 163.039L43.1725 166.518ZM34.184 162.711L41.6829 163.907L41.8617 162.788C42.0063 161.883 41.821 161.144 41.306 160.571C40.7909 159.999 39.9839 159.62 38.8848 159.434L38.2908 159.339C37.149 159.157 36.2471 159.256 35.5852 159.635C34.9181 160.014 34.5118 160.659 34.3664 161.569L34.184 162.711ZM34.0643 151.426L42.6723 149.84L34.9837 145.671L35.4693 142.631L46.7023 144.423L46.3313 146.745L43.2608 146.255L37.9976 145.178L45.8839 149.546L45.6301 151.135L36.7839 152.825L42.1134 153.438L45.1839 153.928L44.8142 156.242L33.5812 154.45L34.0643 151.426ZM47.4184 139.941L47.0486 142.255L35.8157 140.463L36.1854 138.149L47.4184 139.941ZM39.7178 128.072L39.1681 131.513L48.5264 133.005L48.1566 135.32L38.7984 133.827L38.2561 137.221L36.3814 136.922L37.8431 127.773L39.7178 128.072ZM45.9548 114.684C47.0606 114.86 47.9989 115.211 48.7697 115.734C49.5404 116.258 50.0938 116.921 50.4297 117.724C50.7665 118.521 50.8597 119.39 50.7093 120.332C50.5606 121.263 50.2042 122.057 49.64 122.716C49.0759 123.375 48.3477 123.839 47.4556 124.108C46.5583 124.377 45.5692 124.427 44.4882 124.26L43.9328 124.171C42.827 123.995 41.8865 123.642 41.1114 123.112C40.332 122.577 39.7765 121.91 39.4449 121.114C39.1089 120.311 39.0157 119.442 39.1653 118.506C39.3148 117.57 39.6738 116.775 40.2423 116.122C40.8064 115.463 41.5419 115.003 42.4486 114.742C43.3511 114.474 44.3526 114.428 45.4533 114.604L45.9548 114.684ZM45.0709 116.948C43.8931 116.76 42.9645 116.828 42.2851 117.152C41.6056 117.476 41.2035 118.029 41.0786 118.811C40.9545 119.588 41.1622 120.235 41.7018 120.754C42.2362 121.272 43.0867 121.626 44.2534 121.818L44.8012 121.905C45.9482 122.088 46.8716 122.019 47.5716 121.698C48.2716 121.377 48.6849 120.821 48.8114 120.029C48.9355 119.252 48.7274 118.607 48.187 118.094C47.6415 117.58 46.7854 117.227 45.6187 117.035L45.0709 116.948ZM53.0446 104.723L52.6749 107.038L44.5642 110.364L51.9551 111.543L51.5854 113.858L40.3524 112.066L40.7221 109.751L48.8495 106.42L41.4431 105.238L41.8116 102.932L53.0446 104.723ZM49.579 95.1675L48.8691 99.6112L51.878 100.091L52.7111 94.876L54.5704 95.1726L53.3675 102.702L42.1345 100.91L43.335 93.3962L45.2097 93.6952L44.379 98.8949L47.0561 99.322L47.766 94.8783L49.579 95.1675Z" fill="#F3F3F3"/>
<path d="M287.19 0C287.038 0.000210109 286.889 0.0377828 286.756 0.109409L208.491 41.8814C208.274 41.9976 208.112 42.1952 208.04 42.431C207.969 42.6668 207.993 42.9214 208.108 43.1392L237.99 99.507C238.106 99.7246 238.303 99.8873 238.538 99.9593C238.773 100.031 239.027 100.007 239.244 99.8914L317.509 58.1194C317.726 58.0034 317.888 57.8058 317.959 57.57C318.031 57.3342 318.007 57.0794 317.892 56.8616L288.009 0.493878C287.952 0.385798 287.875 0.290119 287.781 0.212384C287.687 0.134649 287.578 0.0764045 287.462 0.0410258C287.374 0.0139249 287.282 9.89372e-05 287.19 0Z" fill="#E6E6E6"/>
<path d="M285.463 7.60202L306.865 47.3979C306.936 47.5294 306.98 47.6735 306.995 47.8219C307.009 47.9702 306.994 48.1199 306.95 48.2625C306.906 48.405 306.834 48.5376 306.738 48.6526C306.642 48.7676 306.524 48.8628 306.391 48.9328L238.089 84.8677C238.04 84.8936 237.99 84.9154 237.938 84.9329C237.678 85.0253 237.394 85.0222 237.137 84.9241C236.879 84.826 236.666 84.6394 236.537 84.3987L215.135 44.6028C215.064 44.4713 215.02 44.3272 215.005 44.1788C214.991 44.0305 215.006 43.8808 215.05 43.7382C215.094 43.5957 215.166 43.4631 215.262 43.3481C215.358 43.2331 215.476 43.1379 215.609 43.068L283.911 7.13306C284.044 7.06302 284.19 7.0196 284.34 7.00526C284.49 6.99092 284.641 7.00596 284.785 7.04951C284.929 7.09306 285.063 7.16428 285.18 7.25908C285.296 7.35388 285.392 7.47041 285.463 7.60202Z" fill="white"/>
<path d="M240 60C245.523 60 250 55.5228 250 50C250 44.4772 245.523 40 240 40C234.477 40 230 44.4772 230 50C230 55.5228 234.477 60 240 60Z" fill="#FF6584"/>
<path d="M282 61.869L239.167 84.9267C239.114 84.9562 239.058 84.9808 239 85L240.593 38.5836C240.6 38.2959 240.683 38.0153 240.832 37.7706C240.982 37.5258 241.193 37.3256 241.444 37.1904C241.695 37.0553 241.977 36.99 242.262 37.0012C242.546 37.0125 242.822 37.0999 243.062 37.2545L269.184 53.7665L270.434 54.5562L282 61.869Z" fill="#3F3D56"/>
<path d="M306 49.0716L269 69L270.63 54.593L270.747 53.5555L272.871 34.7808C273.01 33.5502 274.454 32.7005 275.588 33.0995C275.664 33.1271 275.739 33.1596 275.811 33.1969L306 49.0716Z" fill="#3F3D56"/>
<path d="M211 44C211.552 44 212 43.5523 212 43C212 42.4477 211.552 42 211 42C210.448 42 210 42.4477 210 43C210 43.5523 210.448 44 211 44Z" fill="#3F3D56"/>
<path d="M286.5 4C287.328 4 288 3.55228 288 3C288 2.44772 287.328 2 286.5 2C285.672 2 285 2.44772 285 3C285 3.55228 285.672 4 286.5 4Z" fill="#3F3D56"/>
<path d="M239.5 98C240.328 98 241 97.5523 241 97C241 96.4477 240.328 96 239.5 96C238.672 96 238 96.4477 238 97C238 97.5523 238.672 98 239.5 98Z" fill="#3F3D56"/>
<path d="M315 58C315.552 58 316 57.5523 316 57C316 56.4477 315.552 56 315 56C314.448 56 314 56.4477 314 57C314 57.5523 314.448 58 315 58Z" fill="#3F3D56"/>
<path d="M26.2373 197.192C26.0074 197.097 25.7492 197.097 25.5194 197.193C25.2896 197.288 25.107 197.471 25.0115 197.701L0.359137 257.286C0.264171 257.516 0.264284 257.774 0.359452 258.004C0.454619 258.234 0.637063 258.417 0.866755 258.512L83.7628 292.809C83.9927 292.904 84.2509 292.904 84.4807 292.808C84.7105 292.713 84.8931 292.53 84.9886 292.3L109.641 232.716C109.736 232.486 109.736 232.227 109.641 231.997C109.545 231.767 109.363 231.585 109.133 231.489L26.2373 197.192Z" fill="#E6E6E6"/>
<path d="M102.351 234.924L84.8305 277.27C84.7136 277.552 84.4894 277.777 84.2073 277.894C83.9252 278.011 83.6082 278.011 83.3261 277.895L11.5427 248.195C11.4921 248.175 11.4436 248.15 11.398 248.12C11.1596 247.979 10.9799 247.757 10.8921 247.495C10.8042 247.232 10.814 246.946 10.9197 246.69L28.4397 204.344C28.5566 204.062 28.7808 203.837 29.0629 203.72C29.345 203.603 29.662 203.603 29.9441 203.719L101.728 233.419C102.01 233.536 102.234 233.76 102.35 234.042C102.467 234.324 102.467 234.642 102.351 234.924Z" fill="white"/>
<path d="M79.8953 247.082C82.0251 247.963 84.467 246.948 85.3494 244.815C86.2318 242.683 85.2205 240.239 83.0907 239.358C80.9609 238.477 78.519 239.492 77.6366 241.624C76.7542 243.757 77.7654 246.2 79.8953 247.082Z" fill="#FF6584"/>
<path d="M26.435 201.272C27.1372 201.563 27.9423 201.228 28.2332 200.525C28.5241 199.822 28.1908 199.017 27.4886 198.726C26.7864 198.436 25.9813 198.77 25.6904 199.473C25.3995 200.176 25.7329 200.982 26.435 201.272Z" fill="#3F3D56"/>
<path d="M105.941 234.167C106.643 234.458 107.448 234.123 107.739 233.42C108.03 232.717 107.696 231.911 106.994 231.621C106.292 231.33 105.487 231.665 105.196 232.368C104.905 233.071 105.238 233.876 105.941 234.167Z" fill="#3F3D56"/>
<path d="M2.83617 258.31C3.53835 258.601 4.34343 258.266 4.63435 257.563C4.92527 256.86 4.59187 256.055 3.88969 255.764C3.18751 255.474 2.38245 255.808 2.09152 256.511C1.8006 257.214 2.13399 258.02 2.83617 258.31Z" fill="#3F3D56"/>
<path d="M82.3419 291.205C83.0441 291.496 83.8492 291.161 84.1401 290.458C84.431 289.755 84.0976 288.949 83.3954 288.659C82.6933 288.368 81.8882 288.703 81.5973 289.406C81.3063 290.109 81.6397 290.914 82.3419 291.205Z" fill="#3F3D56"/>
<path d="M39.839 243.741C42.3943 244.798 45.324 243.581 46.3827 241.022C47.4414 238.463 46.2282 235.532 43.6728 234.474C41.1175 233.417 38.1878 234.634 37.1291 237.193C36.0704 239.752 37.2836 242.684 39.839 243.741Z" fill="#6C63FF"/>
<path d="M36.4279 253.247L35.4803 252.855L41.975 238.381L36.4279 253.247Z" fill="#3F3D56"/>
<path d="M40.9095 241.193L42.5101 240.204L40.7511 241.536L40.7207 241.294L40.9095 241.193Z" fill="#3F3D56"/>
<path d="M40.2089 242.57L39.7748 240.74L40.0787 242.925L40.2712 242.775L40.2089 242.57Z" fill="#3F3D56"/>
<path d="M82.2812 261.301C84.8365 262.358 87.7663 261.141 88.825 258.582C89.8837 256.023 88.6704 253.092 86.1151 252.034C83.5598 250.977 80.63 252.195 79.5713 254.753C78.5126 257.312 79.7259 260.244 82.2812 261.301Z" fill="#6C63FF"/>
<path d="M78.8703 270.807L77.9227 270.415L84.4174 255.941L78.8703 270.807Z" fill="#3F3D56"/>
<path d="M83.3517 258.753L84.9522 257.764L83.1936 259.096L83.1628 258.854L83.3517 258.753Z" fill="#3F3D56"/>
<path d="M82.6515 260.13L82.2173 258.3L82.521 260.485L82.7134 260.335L82.6515 260.13Z" fill="#3F3D56"/>
<path d="M53.9999 247.454C57.7739 249.016 62.1009 247.218 63.6645 243.439C65.2281 239.659 63.4363 235.33 59.6623 233.768C55.8883 232.207 51.5613 234.005 49.9977 237.784C48.4341 241.563 50.2259 245.893 53.9999 247.454Z" fill="#6C63FF"/>
<path d="M48.9622 261.495L47.5627 260.916L57.1546 239.538L48.9622 261.495Z" fill="#3F3D56"/>
<path d="M55.5811 243.691L57.945 242.231L55.3474 244.198L55.302 243.841L55.5811 243.691Z" fill="#3F3D56"/>
<path d="M54.5466 245.725L53.9054 243.021L54.3539 246.249L54.6381 246.029L54.5466 245.725Z" fill="#3F3D56"/>
<path d="M71.7459 251.735C75.5199 253.296 79.8469 251.499 81.4105 247.719C82.9741 243.94 81.1822 239.611 77.4082 238.049C73.6342 236.488 69.3073 238.286 67.7437 242.065C66.1801 245.844 67.9719 250.174 71.7459 251.735Z" fill="#6C63FF"/>
<path d="M66.7082 265.776L65.3087 265.197L74.9006 243.819L66.7082 265.776Z" fill="#3F3D56"/>
<path d="M73.3272 247.972L75.6907 246.511L73.0932 248.478L73.0481 248.122L73.3272 247.972Z" fill="#3F3D56"/>
<path d="M72.2925 250.006L71.6514 247.302L72.0999 250.53L72.384 250.309L72.2925 250.006Z" fill="#3F3D56"/>
<path d="M28.5223 233.852C32.2963 235.413 36.6233 233.615 38.1869 229.836C39.7505 226.057 37.9586 221.727 34.1846 220.166C30.4106 218.604 26.0836 220.402 24.52 224.182C22.9564 227.961 24.7483 232.29 28.5223 233.852Z" fill="#6C63FF"/>
<path d="M23.4847 247.892L22.085 247.313L31.6772 225.936L23.4847 247.892Z" fill="#3F3D56"/>
<path d="M30.1035 230.088L32.4673 228.628L29.8697 230.595L29.8243 230.238L30.1035 230.088Z" fill="#3F3D56"/>
<path d="M29.069 232.123L28.4279 229.419L28.8764 232.647L29.1602 232.426L29.069 232.123Z" fill="#3F3D56"/>
<path d="M47.914 263.243L11.5427 248.195C11.4921 248.175 11.4436 248.15 11.398 248.12C11.1596 247.979 10.9799 247.757 10.8921 247.495C10.8042 247.232 10.814 246.946 10.9197 246.69L14.6819 237.597C18.3406 238.442 21.9216 239.593 25.3871 241.039C38.2983 246.38 47.5654 254.554 48.2215 260.635C48.3354 261.516 48.2298 262.412 47.914 263.243Z" fill="#3F3D56"/>
<path d="M85.6835 275.208L84.8304 277.27C84.7135 277.552 84.4893 277.777 84.2072 277.894C83.9251 278.011 83.6081 278.011 83.326 277.895L43.0849 261.245C44.7677 260.842 46.4915 260.637 48.2214 260.634C54.0277 260.557 61.527 262.114 69.2307 265.301C75.9261 268.071 81.6396 271.598 85.6835 275.208Z" fill="#3F3D56"/>
</svg>
