<svg width="27" height="26" viewBox="0 0 27 26" fill="none" xmlns="http://www.w3.org/2000/svg">
<ellipse cx="13.8743" cy="12.8743" rx="13.1257" ry="12.5519" fill="white"/>
<path fill-rule="evenodd" clip-rule="evenodd" d="M14.5376 7.52172C15.1812 7.22049 15.7426 7.12128 16.6135 7.12129C18.8422 7.13011 20.4918 8.92762 20.4918 11.2173C20.4918 12.965 19.4728 14.6532 17.5748 16.2857C16.5785 17.1426 15.3065 17.9905 14.3955 18.4416L13.8743 18.6998L13.3531 18.4416C12.4421 17.9905 11.1701 17.1426 10.1738 16.2857C8.27575 14.6532 7.25674 12.965 7.25674 11.2173C7.25674 8.90312 8.89094 7.12128 11.1398 7.12128C11.9794 7.12128 12.5696 7.22988 13.2257 7.54017C13.4541 7.6482 13.6687 7.77634 13.8683 7.92425C14.0758 7.76756 14.2994 7.63325 14.5376 7.52172Z" fill="#FF4E63"/>
</svg>
