<svg width="28" height="28" viewBox="0 0 28 28" fill="none" xmlns="http://www.w3.org/2000/svg">
<rect width="28" height="28" fill="#232323"/>
<rect x="-804" y="-25" width="856" height="720" fill="white"/>
<path fill-rule="evenodd" clip-rule="evenodd" d="M16.3333 7.00004C16.3333 7.33538 16.3687 7.66245 16.4359 7.97774L10.5198 10.9358C9.66423 9.95392 8.40457 9.33337 6.99998 9.33337C4.42265 9.33337 2.33331 11.4227 2.33331 14C2.33331 16.5774 4.42265 18.6667 6.99998 18.6667C8.40458 18.6667 9.66425 18.0462 10.5198 17.0643L16.4359 20.0223C16.3687 20.3376 16.3333 20.6647 16.3333 21C16.3333 23.5774 18.4226 25.6667 21 25.6667C23.5773 25.6667 25.6666 23.5774 25.6666 21C25.6666 18.4227 23.5773 16.3334 21 16.3334C19.5954 16.3334 18.3358 16.9539 17.4802 17.9357L11.5641 14.9777C11.6313 14.6624 11.6666 14.3354 11.6666 14C11.6666 13.6647 11.6313 13.3377 11.5641 13.0224L17.4802 10.0643C18.3358 11.0462 19.5954 11.6667 21 11.6667C23.5773 11.6667 25.6666 9.57737 25.6666 7.00004C25.6666 4.42271 23.5773 2.33337 21 2.33337C18.4226 2.33337 16.3333 4.42271 16.3333 7.00004ZM9.33331 14C9.33331 15.2887 8.28865 16.3334 6.99998 16.3334C5.71132 16.3334 4.66665 15.2887 4.66665 14C4.66665 12.7114 5.71132 11.6667 6.99998 11.6667C8.28865 11.6667 9.33331 12.7114 9.33331 14ZM21 9.33337C22.2886 9.33337 23.3333 8.2887 23.3333 7.00004C23.3333 5.71137 22.2886 4.6667 21 4.6667C19.7113 4.6667 18.6667 5.71137 18.6667 7.00004C18.6667 8.2887 19.7113 9.33337 21 9.33337ZM23.3333 21C23.3333 22.2887 22.2886 23.3334 21 23.3334C19.7113 23.3334 18.6667 22.2887 18.6667 21C18.6667 19.7114 19.7113 18.6667 21 18.6667C22.2886 18.6667 23.3333 19.7114 23.3333 21Z" fill="#1F2845"/>
</svg>
