<svg width="28" height="28" viewBox="0 0 28 28" fill="none" xmlns="http://www.w3.org/2000/svg">
<path fill-rule="evenodd" clip-rule="evenodd" d="M16.3333 7.00001C16.3333 7.33534 16.3687 7.66242 16.4359 7.97771L10.5198 10.9358C9.66425 9.95389 8.40459 9.33334 6.99999 9.33334C4.42267 9.33334 2.33333 11.4227 2.33333 14C2.33333 16.5773 4.42267 18.6667 6.99999 18.6667C8.4046 18.6667 9.66426 18.0461 10.5198 17.0642L16.4359 20.0223C16.3687 20.3376 16.3333 20.6647 16.3333 21C16.3333 23.5773 18.4227 25.6667 21 25.6667C23.5773 25.6667 25.6667 23.5773 25.6667 21C25.6667 18.4227 23.5773 16.3333 21 16.3333C19.5954 16.3333 18.3358 16.9539 17.4803 17.9357L11.5641 14.9776C11.6313 14.6624 11.6667 14.3353 11.6667 14C11.6667 13.6647 11.6313 13.3376 11.5641 13.0224L17.4802 10.0643C18.3358 11.0461 19.5954 11.6667 21 11.6667C23.5773 11.6667 25.6667 9.57734 25.6667 7.00001C25.6667 4.42268 23.5773 2.33334 21 2.33334C18.4227 2.33334 16.3333 4.42268 16.3333 7.00001ZM9.33333 14C9.33333 15.2887 8.28866 16.3333 7 16.3333C5.71133 16.3333 4.66666 15.2887 4.66666 14C4.66666 12.7113 5.71133 11.6667 7 11.6667C8.28866 11.6667 9.33333 12.7113 9.33333 14ZM21 9.33334C22.2887 9.33334 23.3333 8.28867 23.3333 7C23.3333 5.71134 22.2887 4.66667 21 4.66667C19.7113 4.66667 18.6667 5.71134 18.6667 7C18.6667 8.28867 19.7113 9.33334 21 9.33334ZM23.3333 21C23.3333 22.2887 22.2887 23.3333 21 23.3333C19.7113 23.3333 18.6667 22.2887 18.6667 21C18.6667 19.7113 19.7113 18.6667 21 18.6667C22.2887 18.6667 23.3333 19.7113 23.3333 21Z" fill="white"/>
</svg>
