<svg width="17" height="17" viewBox="0 0 17 17" fill="none" xmlns="http://www.w3.org/2000/svg">
<path d="M13.8026 14.1821C13.5124 11.6291 12.3473 10.5709 11.4963 9.79925C10.9079 9.26368 10.625 8.98511 10.625 8.50001C10.625 8.02155 10.9069 7.74829 11.4936 7.22368C12.3546 6.45436 13.5336 5.4005 13.8032 2.81298C13.8248 2.59559 13.8005 2.3761 13.7318 2.16871C13.6632 1.96132 13.5518 1.77064 13.4048 1.60903C13.2478 1.43641 13.0564 1.29859 12.843 1.20446C12.6295 1.11033 12.3986 1.06197 12.1653 1.06251H4.83473C4.60109 1.06178 4.3699 1.11004 4.15607 1.20417C3.94223 1.29831 3.75051 1.43623 3.59327 1.60903C3.44673 1.77087 3.33573 1.96162 3.26745 2.16899C3.19917 2.37636 3.17511 2.59574 3.19682 2.81298C3.46543 5.3922 4.64016 6.43843 5.4978 7.2021C6.09014 7.7297 6.37502 8.00495 6.37502 8.50001C6.37502 9.00138 6.08948 9.28227 5.49514 9.81983C4.64846 10.5868 3.48635 11.637 3.19748 14.1821C3.17403 14.3985 3.19651 14.6174 3.26345 14.8245C3.33039 15.0316 3.44029 15.2223 3.58596 15.384C3.74353 15.5588 3.93618 15.6985 4.15135 15.7939C4.36652 15.8892 4.59937 15.9382 4.83473 15.9375H12.1653C12.4007 15.9382 12.6335 15.8892 12.8487 15.7939C13.0639 15.6985 13.2565 15.5588 13.4141 15.384C13.5598 15.2223 13.6697 15.0316 13.7366 14.8245C13.8035 14.6174 13.826 14.3985 13.8026 14.1821ZM11.3987 14.3438H5.61567C5.0977 14.3438 4.95161 13.7461 5.31485 13.3756C6.19407 12.4844 7.96877 11.8462 7.96877 10.8242V7.43751C7.96877 6.77843 6.70705 6.2754 5.92645 5.20626C5.79762 5.02995 5.81057 4.78126 6.13795 4.78126H10.877C11.1563 4.78126 11.2164 5.02796 11.0895 5.2046C10.3202 6.2754 9.03127 6.77511 9.03127 7.43751V10.8242C9.03127 11.8379 10.881 12.3848 11.7008 13.3766C12.0312 13.7763 11.9156 14.3438 11.3987 14.3438Z" fill="#1F2845"/>
</svg>
