<svg width="17" height="17" viewBox="0 0 17 17" fill="none" xmlns="http://www.w3.org/2000/svg">
<path d="M11.1563 8.5C10.4736 8.5 9.81353 8.1952 9.29689 7.64203C8.79452 7.10248 8.48773 6.38297 8.4336 5.61664C8.37583 4.79918 8.62519 4.04746 9.13552 3.49961C9.64585 2.95176 10.3594 2.65625 11.1563 2.65625C11.9475 2.65625 12.663 2.95707 13.1717 3.50359C13.6853 4.05543 13.9354 4.80582 13.8776 5.61631C13.8221 6.38363 13.5157 7.10281 13.0143 7.6417C12.499 8.1952 11.8392 8.5 11.1563 8.5Z" fill="#1F2845"/>
<path d="M15.5334 14.3438H6.77942C6.63867 14.3445 6.49963 14.313 6.373 14.2515C6.24636 14.1901 6.1355 14.1005 6.04895 13.9895C5.95714 13.8692 5.89375 13.7296 5.8635 13.5813C5.83326 13.433 5.83695 13.2798 5.8743 13.1332C6.15387 12.0106 6.84649 11.0796 7.87711 10.4411C8.79186 9.87461 9.95629 9.5625 11.1562 9.5625C12.3798 9.5625 13.5137 9.86133 14.4337 10.4274C15.4667 11.0626 16.1603 11.9989 16.4385 13.1352C16.4754 13.2819 16.4787 13.4351 16.4481 13.5834C16.4175 13.7316 16.3539 13.871 16.2619 13.9911C16.1754 14.1016 16.0648 14.1908 15.9386 14.2519C15.8123 14.3131 15.6737 14.3445 15.5334 14.3438Z" fill="#1F2845"/>
<path d="M4.88089 8.63281C3.71247 8.63281 2.68516 7.54641 2.58987 6.21131C2.54272 5.52732 2.75589 4.8948 3.18753 4.43096C3.61452 3.97176 4.21682 3.71875 4.88089 3.71875C5.54495 3.71875 6.14261 3.97309 6.57192 4.43494C7.00688 4.90244 7.21938 5.53363 7.16958 6.21197C7.07429 7.54674 6.04731 8.63281 4.88089 8.63281Z" fill="#1F2845"/>
<path d="M7.061 9.67698C6.47696 9.39143 5.71893 9.24866 4.88121 9.24866C3.90305 9.24866 2.95311 9.50366 2.20604 9.96651C1.35903 10.4921 0.789262 11.2575 0.559164 12.1815C0.525491 12.3144 0.522306 12.4532 0.549848 12.5875C0.577389 12.7218 0.634944 12.8482 0.718207 12.9571C0.797213 13.0585 0.898428 13.1405 1.01407 13.1967C1.12971 13.2529 1.25669 13.2818 1.38526 13.2812H5.0708C5.13301 13.2812 5.19324 13.2593 5.24099 13.2195C5.28875 13.1796 5.32099 13.1242 5.33211 13.063C5.33576 13.0421 5.34041 13.0212 5.34573 13.0006C5.62729 11.8697 6.28703 10.9141 7.26188 10.2175C7.29773 10.1917 7.32657 10.1573 7.34578 10.1175C7.36499 10.0777 7.37396 10.0337 7.37189 9.98956C7.36981 9.94541 7.35675 9.90248 7.33389 9.86465C7.31102 9.82683 7.27908 9.7953 7.24096 9.77294C7.18883 9.74239 7.12907 9.71018 7.061 9.67698Z" fill="#1F2845"/>
</svg>
