<svg width="17" height="17" viewBox="0 0 17 17" fill="none" xmlns="http://www.w3.org/2000/svg">
<path d="M11.2891 15.9375H3.51953C2.54004 15.9375 1.69602 15.6776 1.07811 15.1858C0.372871 14.624 0 13.791 0 12.7766C0 11.7991 0.401426 10.9753 1.16211 10.3946C1.56387 10.0872 2.06523 9.85772 2.6008 9.72889C2.69763 9.70494 2.78576 9.65422 2.85511 9.58252C2.92446 9.51083 2.97222 9.42105 2.99293 9.32348C3.23033 8.24305 3.7317 7.31502 4.46482 6.60913C5.33468 5.77242 6.49619 5.30736 7.70312 5.31254C8.77658 5.31254 9.7667 5.66616 10.5666 6.33487C11.0996 6.78417 11.5265 7.3459 11.8167 7.97975C11.8509 8.0547 11.9021 8.1207 11.9662 8.17255C12.0302 8.22439 12.1054 8.26069 12.1859 8.27858C12.9828 8.4519 13.694 8.80252 14.2319 9.29327C15.0002 9.99418 15.4062 10.9511 15.4062 12.0594C15.4062 13.1501 14.9703 14.1469 14.1777 14.8657C13.4177 15.557 12.3914 15.9375 11.2891 15.9375Z" fill="#1F2845"/>
<path d="M16.9512 6.96567C16.9889 6.88161 17.0046 6.78934 16.9967 6.69756C16.9889 6.60578 16.9578 6.51751 16.9064 6.44106C16.8364 6.33958 16.7333 6.26561 16.6148 6.23181C16.4962 6.198 16.3696 6.20648 16.2566 6.25578C15.9013 6.41018 15.4438 6.49385 14.9311 6.4975C13.095 6.51078 11.565 5.00336 11.565 3.1669C11.565 2.64395 11.6474 2.17612 11.8034 1.81354C11.8421 1.72582 11.8568 1.62939 11.846 1.53413C11.8352 1.43886 11.7993 1.34817 11.742 1.27133C11.6701 1.17671 11.5685 1.10894 11.4536 1.07884C11.3386 1.04875 11.2168 1.05807 11.1078 1.10532C9.82516 1.66379 8.91042 2.81561 8.6086 4.17793C8.60479 4.19535 8.60452 4.21336 8.60782 4.23089C8.61112 4.24841 8.61792 4.26509 8.6278 4.27994C8.63768 4.29478 8.65046 4.30748 8.66536 4.31728C8.68025 4.32708 8.69697 4.33378 8.71452 4.33698C9.64823 4.50148 10.5221 4.90906 11.2483 5.51868C11.7795 5.96417 12.2254 6.50237 12.5644 7.10711C12.6332 7.22944 12.7468 7.32035 12.8812 7.36078C13.6744 7.59885 14.3786 7.98832 14.9481 8.50762C15.0464 8.59771 15.1402 8.6909 15.2296 8.78719C15.2513 8.81021 15.2804 8.82475 15.3118 8.82822C15.3432 8.83169 15.3748 8.82385 15.401 8.80612C16.0828 8.35321 16.6208 7.71457 16.9512 6.96567Z" fill="#1F2845"/>
</svg>
