<svg width="63" height="63" viewBox="0 0 63 63" fill="none" xmlns="http://www.w3.org/2000/svg">
<circle cx="31.5" cy="31.5" r="31.5" fill="#DBE3FF" fill-opacity="0.2"/>
<circle cx="31.5" cy="31.5" r="23.7632" fill="#DBE3FF" fill-opacity="0.2"/>
<path d="M37.4062 24.0625H25.5938C25.37 24.0625 25.1554 23.9736 24.9971 23.8154C24.8389 23.6571 24.75 23.4425 24.75 23.2188C24.75 22.995 24.8389 22.7804 24.9971 22.6221C25.1554 22.4639 25.37 22.375 25.5938 22.375H37.4062C37.63 22.375 37.8446 22.4639 38.0029 22.6221C38.1611 22.7804 38.25 22.995 38.25 23.2188C38.25 23.4425 38.1611 23.6571 38.0029 23.8154C37.8446 23.9736 37.63 24.0625 37.4062 24.0625Z" fill="#1F2845"/>
<path d="M39.0938 26.5938H23.9062C23.6825 26.5938 23.4679 26.5049 23.3096 26.3466C23.1514 26.1884 23.0625 25.9738 23.0625 25.75C23.0625 25.5262 23.1514 25.3116 23.3096 25.1534C23.4679 24.9951 23.6825 24.9062 23.9062 24.9062H39.0938C39.3175 24.9062 39.5321 24.9951 39.6904 25.1534C39.8486 25.3116 39.9375 25.5262 39.9375 25.75C39.9375 25.9738 39.8486 26.1884 39.6904 26.3466C39.5321 26.5049 39.3175 26.5938 39.0938 26.5938Z" fill="#1F2845"/>
<path d="M40.1026 42.625H22.8974C22.2701 42.6243 21.6687 42.3748 21.2251 41.9312C20.7815 41.4876 20.5319 40.8861 20.5312 40.2588V29.8037C20.5319 29.1764 20.7815 28.5749 21.2251 28.1313C21.6687 27.6877 22.2701 27.4382 22.8974 27.4375H40.1026C40.7299 27.4382 41.3313 27.6877 41.7749 28.1313C42.2185 28.5749 42.4681 29.1764 42.4688 29.8037V40.2588C42.4681 40.8861 42.2185 41.4876 41.7749 41.9312C41.3313 42.3748 40.7299 42.6243 40.1026 42.625Z" fill="#1F2845"/>
</svg>
