<svg width="36" height="36" viewBox="0 0 36 36" fill="none" xmlns="http://www.w3.org/2000/svg">
<path d="M15.1931 13.5V23.6144C15.2048 24.3541 15.5068 25.0594 16.0339 25.5783C16.5611 26.0972 17.2711 26.3881 18.0108 26.3881C18.7505 26.3881 19.4606 26.0972 19.9878 25.5783C20.5149 25.0594 20.8169 24.3541 20.8286 23.6144L20.8378 10.357C20.8454 9.72486 20.7275 9.09747 20.4909 8.51121C20.2543 7.92495 19.9037 7.39149 19.4594 6.94175C19.0151 6.49201 18.4859 6.13493 17.9025 5.89123C17.3192 5.64752 16.6933 5.52203 16.0611 5.52203C15.4289 5.52203 14.803 5.64752 14.2196 5.89123C13.6363 6.13493 13.1071 6.49201 12.6628 6.94175C12.2185 7.39149 11.8678 7.92495 11.6312 8.51121C11.3946 9.09747 11.2767 9.72486 11.2844 10.357V23.7037C11.2715 24.5937 11.4357 25.4774 11.7674 26.3034C12.099 27.1293 12.5916 27.8811 13.2164 28.515C13.8412 29.149 14.5858 29.6523 15.4069 29.9959C16.228 30.3395 17.1092 30.5165 17.9992 30.5165C18.8893 30.5165 19.7705 30.3395 20.5916 29.9959C21.4127 29.6523 22.1573 29.149 22.7821 28.515C23.4069 27.8811 23.8994 27.1293 24.2311 26.3034C24.5628 25.4774 24.727 24.5937 24.7141 23.7037V11.2317" stroke="#939DBE" stroke-width="3" stroke-miterlimit="10" stroke-linecap="round"/>
</svg>
