<svg width="63" height="63" viewBox="0 0 63 63" fill="none" xmlns="http://www.w3.org/2000/svg">
<circle cx="31.5" cy="31.5" r="31.5" fill="#DBE3FF" fill-opacity="0.2"/>
<circle cx="31.5" cy="31.5" r="23.7632" fill="#DBE3FF" fill-opacity="0.2"/>
<path d="M32.4165 38.4258C32.3738 37.939 31.9493 37.5588 31.4383 37.5588C31.2184 37.5572 31.0042 37.6294 30.8302 37.764C30.6562 37.8985 30.5324 38.0875 30.4785 38.3008L29.5188 42.9604C29.487 43.0965 29.4706 43.2357 29.4697 43.3754C29.4697 44.4264 30.3493 45.1562 31.4383 45.1562C32.5273 45.1562 33.4074 44.4264 33.4074 43.3754C33.4068 43.207 33.384 43.0394 33.3394 42.8771L32.4165 38.4258Z" fill="#1F2845"/>
<path d="M39.6764 40.5098C39.5787 40.4243 39.4737 40.3473 39.3627 40.2799L35.696 37.7207C35.339 37.4971 34.9578 37.5029 34.6809 37.7734C34.5601 37.8884 34.4834 38.042 34.4641 38.2076C34.4449 38.3732 34.4842 38.5404 34.5754 38.6799L37.344 42.3186C37.4075 42.4066 37.478 42.4893 37.5549 42.5659C38.0348 43.1017 39.099 43.1313 39.6838 42.5659C40.2607 41.988 40.2539 40.9633 39.6764 40.5098Z" fill="#1F2845"/>
<path d="M42.4318 36.7151H38.7183C38.4783 36.7151 38.25 36.8917 38.25 37.1448C38.25 37.398 38.4056 37.5588 38.6149 37.6279L42.1181 38.7116C42.627 38.8281 43.3125 38.3767 43.3125 37.8109C43.3125 37.0921 42.9117 36.7151 42.4318 36.7151Z" fill="#1F2845"/>
<path d="M24.7616 37.1448C24.7616 36.8838 24.5217 36.7151 24.2633 36.7151H20.5497C20.082 36.7151 19.6875 37.2203 19.6875 37.7861C19.6875 38.3519 20.353 38.8281 20.8635 38.7116L24.4194 37.6279C24.6509 37.5588 24.7616 37.4043 24.7616 37.1448Z" fill="#1F2845"/>
<path d="M27.3103 37.7233L23.6426 40.2736C23.5287 40.3375 23.4225 40.4143 23.3262 40.5024C23.1865 40.6324 23.075 40.7897 22.9988 40.9647C22.9226 41.1396 22.8833 41.3284 22.8833 41.5192C22.8833 41.71 22.9226 41.8987 22.9988 42.0737C23.075 42.2486 23.1865 42.4059 23.3262 42.5359C23.614 42.8074 23.9947 42.9586 24.3904 42.9586C24.786 42.9586 25.1667 42.8074 25.4545 42.5359C25.5329 42.4609 25.6036 42.3782 25.6655 42.2891L28.4361 38.6699C28.6207 38.3762 28.5901 38.0118 28.3307 37.7734C28.194 37.6458 28.0164 37.5707 27.8296 37.5616C27.6428 37.5524 27.4588 37.6097 27.3103 37.7233Z" fill="#1F2845"/>
<path d="M33.4754 31.7823C34.0027 31.4965 34.5011 31.2265 34.9683 30.9301C37.2074 29.5105 38.25 27.8188 38.25 25.6039C38.25 22.1941 35.2931 20.0985 32.5114 19.8559C32.1692 19.8258 31.7204 19.8337 31.4615 20.0605C31.2025 20.2873 31.1514 20.7228 31.1371 21.0677C31.0644 22.8401 29.6405 24.1791 28.1313 25.5955C26.6547 26.9824 25.1291 28.4163 24.8243 30.3943C24.3808 33.2778 25.9708 34.9669 26.9579 35.7168C27.2505 35.9395 27.608 36.06 27.9757 36.0601C28.1073 36.06 28.2384 36.0446 28.3665 36.0142C28.608 35.9576 28.8339 35.8481 29.0279 35.6935C29.2218 35.5389 29.3791 35.3432 29.4881 35.1204C30.2744 33.5178 31.9018 32.6355 33.4754 31.7823Z" fill="#1F2845"/>
<path d="M25.3733 27.2566C26.0177 26.4255 26.7971 25.6915 27.5549 24.9811C28.6054 23.994 29.5488 23.1049 30.0071 22.1409C29.3616 21.7522 28.5643 21.5418 27.5544 21.5418C26.6163 21.5418 26.4792 21.815 26.4792 22.5469C26.4792 23.2093 26.1348 23.6301 25.7229 24.1632C25.2668 24.7533 24.75 25.4215 24.75 26.4271C24.75 26.9666 24.818 27.4169 24.9715 27.8177C25.0945 27.6307 25.2285 27.4437 25.3733 27.2566Z" fill="#1F2845"/>
<path d="M35.4203 31.6425C34.9283 31.9547 34.4184 32.2311 33.8778 32.5237C32.3533 33.3506 30.9136 34.1311 30.2455 35.4916C30.2145 35.5561 30.1815 35.6196 30.1464 35.682C30.1172 35.7339 30.0994 35.7914 30.094 35.8507C30.0886 35.9099 30.0959 35.9697 30.1153 36.026C30.1346 36.0822 30.1657 36.1338 30.2064 36.1772C30.2471 36.2206 30.2966 36.2549 30.3515 36.2779C31.0007 36.5468 31.6767 36.714 32.4034 36.714C33.9423 36.7242 35.4237 36.1302 36.5293 35.0597C37.0774 34.528 37.5124 33.891 37.8081 33.187C38.1038 32.4829 38.2541 31.7264 38.2501 30.9628C38.2497 30.6976 38.2262 30.4329 38.1799 30.1718C38.1663 30.094 38.1311 30.0217 38.0784 29.9629C38.0257 29.9042 37.9576 29.8614 37.8818 29.8394C37.806 29.8174 37.7256 29.8172 37.6496 29.8386C37.5737 29.8601 37.5053 29.9024 37.4522 29.9608C36.9153 30.5657 36.243 31.121 35.4203 31.6425Z" fill="#1F2845"/>
</svg>
