<svg width="63" height="63" viewBox="0 0 63 63" fill="none" xmlns="http://www.w3.org/2000/svg">
<circle cx="31.5" cy="31.5" r="31.5" fill="#DBE3FF" fill-opacity="0.2"/>
<circle cx="31.5" cy="31.5" r="23.7632" fill="#DBE3FF" fill-opacity="0.2"/>
<path d="M39.5156 21.5312H23.4844C22.4777 21.5324 21.5126 21.9328 20.8008 22.6446C20.089 23.3564 19.6886 24.3215 19.6875 25.3281V35.4531C19.6886 36.4598 20.089 37.4249 20.8008 38.1367C21.5126 38.8485 22.4777 39.2489 23.4844 39.25H24.75V42.625C24.75 42.7854 24.7957 42.9425 24.8817 43.0779C24.9678 43.2133 25.0907 43.3213 25.236 43.3894C25.3813 43.4574 25.543 43.4826 25.7021 43.462C25.8612 43.4414 26.0111 43.3759 26.1343 43.2731L30.9589 39.25H39.5156C40.5223 39.2489 41.4874 38.8485 42.1992 38.1367C42.911 37.4249 43.3114 36.4598 43.3125 35.4531V25.3281C43.3114 24.3215 42.911 23.3564 42.1992 22.6446C41.4874 21.9328 40.5223 21.5324 39.5156 21.5312ZM26.4375 32.0781C26.1037 32.0781 25.7775 31.9792 25.5 31.7937C25.2225 31.6083 25.0062 31.3448 24.8785 31.0364C24.7507 30.7281 24.7173 30.3888 24.7824 30.0614C24.8475 29.7341 25.0083 29.4334 25.2443 29.1974C25.4803 28.9614 25.7809 28.8007 26.1083 28.7355C26.4356 28.6704 26.7749 28.7039 27.0833 28.8316C27.3916 28.9593 27.6552 29.1756 27.8406 29.4531C28.026 29.7306 28.125 30.0569 28.125 30.3906C28.125 30.8382 27.9472 31.2674 27.6307 31.5839C27.3143 31.9003 26.8851 32.0781 26.4375 32.0781ZM31.5 32.0781C31.1662 32.0781 30.84 31.9792 30.5625 31.7937C30.285 31.6083 30.0687 31.3448 29.941 31.0364C29.8132 30.7281 29.7798 30.3888 29.8449 30.0614C29.91 29.7341 30.0708 29.4334 30.3068 29.1974C30.5428 28.9614 30.8434 28.8007 31.1708 28.7355C31.4981 28.6704 31.8374 28.7039 32.1458 28.8316C32.4541 28.9593 32.7177 29.1756 32.9031 29.4531C33.0885 29.7306 33.1875 30.0569 33.1875 30.3906C33.1875 30.8382 33.0097 31.2674 32.6932 31.5839C32.3768 31.9003 31.9476 32.0781 31.5 32.0781ZM36.5625 32.0781C36.2287 32.0781 35.9025 31.9792 35.625 31.7937C35.3475 31.6083 35.1312 31.3448 35.0035 31.0364C34.8757 30.7281 34.8423 30.3888 34.9074 30.0614C34.9725 29.7341 35.1333 29.4334 35.3693 29.1974C35.6053 28.9614 35.9059 28.8007 36.2333 28.7355C36.5606 28.6704 36.8999 28.7039 37.2083 28.8316C37.5166 28.9593 37.7802 29.1756 37.9656 29.4531C38.151 29.7306 38.25 30.0569 38.25 30.3906C38.25 30.8382 38.0722 31.2674 37.7557 31.5839C37.4393 31.9003 37.0101 32.0781 36.5625 32.0781Z" fill="#1F2845"/>
</svg>
