<svg width="63" height="63" viewBox="0 0 63 63" fill="none" xmlns="http://www.w3.org/2000/svg">
<circle cx="31.5" cy="31.5" r="31.5" fill="#DBE3FF" fill-opacity="0.2"/>
<circle cx="31.5" cy="31.5" r="23.7632" fill="#DBE3FF" fill-opacity="0.2"/>
<path d="M39.9217 41.5244C39.4608 37.4697 37.6103 35.789 36.2588 34.5635C35.3243 33.7129 34.875 33.2704 34.875 32.5C34.875 31.7401 35.3227 31.3061 36.2545 30.4729C37.6219 29.251 39.4945 27.5772 39.9227 23.4676C39.957 23.1224 39.9183 22.7738 39.8093 22.4444C39.7003 22.115 39.5234 21.8122 39.2899 21.5555C39.0406 21.2813 38.7367 21.0624 38.3976 20.9129C38.0585 20.7634 37.6919 20.6866 37.3214 20.6875H25.6787C25.3076 20.6863 24.9404 20.763 24.6008 20.9125C24.2612 21.062 23.9567 21.281 23.7069 21.5555C23.4742 21.8125 23.2979 22.1155 23.1895 22.4448C23.081 22.7742 23.0428 23.1226 23.0773 23.4676C23.5039 27.564 25.3696 29.2257 26.7318 30.4386C27.6725 31.2765 28.125 31.7137 28.125 32.5C28.125 33.2963 27.6715 33.7424 26.7275 34.5962C25.3828 35.8143 23.5371 37.4823 23.0783 41.5244C23.0411 41.8681 23.0768 42.2158 23.1831 42.5448C23.2894 42.8737 23.464 43.1765 23.6953 43.4334C23.9456 43.7111 24.2516 43.9329 24.5933 44.0843C24.935 44.2358 25.3049 44.3135 25.6787 44.3125H37.3214C37.6952 44.3135 38.065 44.2358 38.4067 44.0843C38.7485 43.9329 39.0544 43.7111 39.3047 43.4334C39.5361 43.1765 39.7106 42.8737 39.8169 42.5448C39.9232 42.2158 39.9589 41.8681 39.9217 41.5244ZM36.1037 41.7812H26.919C26.0963 41.7812 25.8643 40.832 26.4412 40.2435C27.8376 38.8281 30.6563 37.8146 30.6563 36.1914V30.8125C30.6563 29.7657 28.6524 28.9668 27.4126 27.2687C27.208 26.9887 27.2285 26.5937 27.7485 26.5937H35.2753C35.7188 26.5937 35.8142 26.9855 35.6128 27.2661C34.3909 28.9668 32.3438 29.7604 32.3438 30.8125V36.1914C32.3438 37.8014 35.2816 38.6699 36.5836 40.2451C37.1083 40.88 36.9248 41.7812 36.1037 41.7812Z" fill="#1F2845"/>
</svg>
