<svg width="63" height="63" viewBox="0 0 63 63" fill="none" xmlns="http://www.w3.org/2000/svg">
<circle cx="31.5" cy="31.5" r="31.5" fill="#DBE3FF" fill-opacity="0.2"/>
<circle cx="31.5" cy="31.5" r="23.7632" fill="#DBE3FF" fill-opacity="0.2"/>
<path d="M32.8816 43.5197H29.0132C28.7567 43.5197 28.5107 43.6216 28.3293 43.803C28.1479 43.9844 28.0461 44.2304 28.0461 44.4868C28.0461 44.7433 28.1479 44.9893 28.3293 45.1707C28.5107 45.3521 28.7567 45.454 29.0132 45.454H32.8816C33.1381 45.454 33.3841 45.3521 33.5654 45.1707C33.7468 44.9893 33.8487 44.7433 33.8487 44.4868C33.8487 44.2304 33.7468 43.9844 33.5654 43.803C33.3841 43.6216 33.1381 43.5197 32.8816 43.5197Z" fill="#081838"/>
<path d="M33.8487 40.6184H28.046C27.7896 40.6184 27.5436 40.7203 27.3622 40.9017C27.1808 41.0831 27.0789 41.3291 27.0789 41.5855C27.0789 41.842 27.1808 42.088 27.3622 42.2694C27.5436 42.4508 27.7896 42.5526 28.046 42.5526H33.8487C34.1052 42.5526 34.3512 42.4508 34.5325 42.2694C34.7139 42.088 34.8158 41.842 34.8158 41.5855C34.8158 41.3291 34.7139 41.0831 34.5325 40.9017C34.3512 40.7203 34.1052 40.6184 33.8487 40.6184Z" fill="#081838"/>
<path d="M37.8029 19.2629C35.9854 17.443 33.5507 16.4408 30.9474 16.4408C29.6765 16.4378 28.4175 16.6858 27.2428 17.1708C26.0681 17.6557 25.0008 18.368 24.1021 19.2666C23.2035 20.1653 22.4912 21.2326 22.0063 22.4073C21.5214 23.582 21.2733 24.841 21.2763 26.1118C21.2763 28.9297 22.3564 31.5657 24.2381 33.3434L24.5016 33.5906C25.5902 34.6085 27.0789 36.0029 27.0789 37.2336V38.6842C27.0789 38.9407 27.1808 39.1867 27.3622 39.3681C27.5436 39.5494 27.7895 39.6513 28.046 39.6513H29.4967C29.6249 39.6513 29.7479 39.6004 29.8386 39.5097C29.9293 39.419 29.9802 39.296 29.9802 39.1678V32.0849C29.9803 31.9871 29.9507 31.8916 29.8953 31.811C29.8399 31.7304 29.7614 31.6685 29.6702 31.6334C29.1117 31.4056 28.5812 31.1146 28.089 30.766C27.9783 30.6954 27.8833 30.603 27.8095 30.4944C27.7357 30.3859 27.6849 30.2634 27.6599 30.1346C27.635 30.0057 27.6366 29.8731 27.6646 29.7449C27.6925 29.6166 27.7463 29.4954 27.8226 29.3887C27.8989 29.2819 27.9962 29.1917 28.1084 29.1237C28.2207 29.0558 28.3456 29.0113 28.4756 28.9932C28.6056 28.975 28.7379 28.9835 28.8645 29.0181C28.9911 29.0527 29.1093 29.1127 29.212 29.1945C29.6593 29.5112 30.5206 29.9803 30.9474 29.9803C31.3741 29.9803 32.2354 29.51 32.6839 29.1945C32.8927 29.0632 33.1438 29.0167 33.3858 29.0644C33.6278 29.1122 33.8425 29.2506 33.9858 29.4514C34.1291 29.6521 34.1903 29.9001 34.1568 30.1444C34.1233 30.3888 33.9978 30.6112 33.8058 30.766C33.3134 31.1139 32.7829 31.4043 32.2245 31.6316C32.1333 31.6667 32.0548 31.7286 31.9994 31.8092C31.944 31.8898 31.9144 31.9853 31.9145 32.0831V39.1678C31.9145 39.296 31.9654 39.419 32.0561 39.5097C32.1468 39.6004 32.2698 39.6513 32.398 39.6513H33.8487C34.1052 39.6513 34.3511 39.5494 34.5325 39.3681C34.7139 39.1867 34.8158 38.9407 34.8158 38.6842V37.2336C34.8158 36.0319 36.2882 34.6387 37.3635 33.6208L37.6603 33.3391C39.5957 31.4914 40.6184 28.9896 40.6184 26.1118C40.6248 24.8409 40.3793 23.5812 39.896 22.4056C39.4128 21.2301 38.7014 20.1619 37.8029 19.2629Z" fill="#081838"/>
</svg>
