<svg width="63" height="63" viewBox="0 0 63 63" fill="none" xmlns="http://www.w3.org/2000/svg">
<circle cx="31.5" cy="31.5" r="31.5" fill="#DBE3FF" fill-opacity="0.2"/>
<circle cx="31.5" cy="31.5" r="23.7632" fill="#DBE3FF" fill-opacity="0.2"/>
<path d="M31.5 30.8125C32.432 30.8125 33.1875 30.057 33.1875 29.125C33.1875 28.193 32.432 27.4375 31.5 27.4375C30.568 27.4375 29.8125 28.193 29.8125 29.125C29.8125 30.057 30.568 30.8125 31.5 30.8125Z" fill="#1F2845"/>
<path d="M31.5 20.6875C26.8478 20.6875 23.0625 24.3077 23.0625 28.7559C23.0625 30.8742 24.0281 33.6913 25.9323 37.129C27.4616 39.8891 29.2308 42.3851 30.1511 43.627C30.3066 43.8391 30.5099 44.0117 30.7445 44.1307C30.9791 44.2496 31.2385 44.3116 31.5016 44.3116C31.7647 44.3116 32.024 44.2496 32.2587 44.1307C32.4933 44.0117 32.6966 43.8391 32.8521 43.627C33.7707 42.3851 35.5416 39.8891 37.0709 37.129C38.9719 33.6923 39.9375 30.8753 39.9375 28.7559C39.9375 24.3077 36.1522 20.6875 31.5 20.6875ZM31.5 32.5C30.8325 32.5 30.18 32.3021 29.625 31.9312C29.0699 31.5604 28.6374 31.0333 28.3819 30.4166C28.1265 29.7999 28.0596 29.1213 28.1898 28.4666C28.3201 27.8119 28.6415 27.2105 29.1135 26.7385C29.5855 26.2665 30.1869 25.9451 30.8416 25.8148C31.4963 25.6846 32.1749 25.7515 32.7916 26.0069C33.4083 26.2624 33.9354 26.6949 34.3062 27.25C34.6771 27.805 34.875 28.4575 34.875 29.125C34.874 30.0198 34.5181 30.8777 33.8854 31.5104C33.2527 32.1431 32.3948 32.499 31.5 32.5Z" fill="#1F2845"/>
</svg>
